<svg width="137" height="79" viewBox="0 0 137 79" fill="none" xmlns="http://www.w3.org/2000/svg">
    <rect y="55.0361" width="94.4009" height="23.0427" rx="11.5214" fill="#FBE7A1"/>
    <path d="M103.842 56.68L104.342 56.9561L102.846 59.6612C102.745 59.8423 102.579 59.9651 102.393 60.0148C102.216 60.0622 102.021 60.0436 101.848 59.9482L101.724 59.8791L96.4575 69.4119L94.4601 68.3083L99.7262 58.7768L97.7377 57.6771L92.4713 67.2098L90.474 66.1063L95.7403 56.5736L93.7508 55.4747L88.4845 65.0074L86.4871 63.9039L91.7535 54.3712L90.9917 53.9509L89.763 53.2726L84.4972 62.8051L82.4999 61.7016L87.7662 52.1689L85.7763 51.0701L80.5105 60.6027L78.5132 59.4992L83.7789 49.9662L81.7894 48.8673L76.5233 58.3988L74.5261 57.2958L79.7919 47.7632L79.6671 47.6943C79.3119 47.4981 79.1835 47.0503 79.3795 46.6963L80.8732 43.9907L81.8722 44.5427L103.343 56.4038L103.842 56.68Z" fill="#F493B8"/>
    <path d="M120.675 1.21791L120.674 1.2199L106.99 33.2973C105.689 36.3467 105.308 39.6829 105.888 42.9468L106.421 45.9566C106.961 49.001 106.6 52.0915 105.38 54.9218L104.878 54.6445L104.375 54.3675L83.046 42.5849L82.5449 42.308L82.0417 42.0299C83.508 39.8959 85.4725 38.1616 87.7933 36.9666C88.203 36.755 88.6348 36.5566 89.0765 36.3764L91.9088 35.2254C94.7676 34.0639 97.2568 32.1469 99.1096 29.6815C99.2377 29.5127 99.3609 29.3407 99.49 29.1548L119.36 0.494725C119.58 0.176391 120.003 0.0767666 120.342 0.26376C120.683 0.450721 120.825 0.861025 120.675 1.2176L120.675 1.21791Z" fill="#F493B8"/>
</svg>
