<svg width="22" height="19" viewBox="0 0 22 19" fill="none" xmlns="http://www.w3.org/2000/svg">
    <path d="M11.0002 5.54224C9.72773 5.5422 8.49462 5.98337 7.51098 6.79057C6.52733 7.59778 5.854 8.72108 5.60572 9.96908C5.35744 11.2171 5.54957 12.5126 6.14937 13.6348C6.74917 14.757 7.71953 15.6365 8.89511 16.1235C10.0707 16.6105 11.3788 16.6748 12.5964 16.3055C13.8141 15.9361 14.8661 15.156 15.573 14.098C16.28 13.04 16.5982 11.7696 16.4735 10.5033C16.3488 9.23694 15.7889 8.05302 14.8892 7.15324C13.8578 6.12178 12.4589 5.54228 11.0002 5.54224ZM11.0002 14.9712C10.0249 14.9726 9.08405 14.6112 8.36058 13.9572C7.6371 13.3032 7.18277 12.4035 7.08598 11.4331C6.98919 10.4627 7.25686 9.49092 7.83692 8.70693C8.41698 7.92295 9.26793 7.38278 10.2242 7.19152C11.1805 7.00026 12.1738 7.17159 13.0108 7.67216C13.8477 8.17274 14.4686 8.96677 14.7525 9.89978C15.0364 10.8328 14.963 11.838 14.5467 12.72C14.1304 13.6019 13.4009 14.2974 12.5002 14.6712C12.0246 14.8682 11.5149 14.9698 11.0002 14.9702V14.9712Z" fill="#696969"/>
    <path d="M18.661 3.16715H15.219L14.1 0.491155C14.0403 0.344388 13.9379 0.218958 13.806 0.131154C13.6732 0.0427036 13.5165 -0.00300874 13.357 0.000153675H8.643C8.48847 0.000305731 8.33745 0.0462387 8.209 0.132154C8.08035 0.218305 7.97986 0.340363 7.92 0.483155L6.781 3.16715H3.339C2.90084 3.16852 2.46724 3.25621 2.06299 3.42523C1.65873 3.59424 1.29175 3.84125 0.983 4.15215C0.356783 4.7828 0.00370588 5.63442 5.69664e-07 6.52315V15.6232C-0.000516469 16.515 0.350942 17.371 0.978001 18.0052C1.28648 18.3185 1.6539 18.5677 2.05911 18.7385C2.46431 18.9093 2.89929 18.9982 3.339 19.0002H18.661C19.1006 18.9988 19.5356 18.9106 19.941 18.7405C20.3463 18.5705 20.7141 18.3219 21.023 18.0092C21.6494 17.3751 22.0005 16.5195 22 15.6282V6.52815C21.9966 5.63907 21.6435 4.78704 21.017 4.15615C20.7086 3.84453 20.3417 3.59678 19.9375 3.42707C19.5332 3.25737 19.0994 3.16904 18.661 3.16715ZM20.429 15.6282C20.4315 16.1014 20.2463 16.5562 19.914 16.8932C19.7503 17.0592 19.5552 17.1911 19.3401 17.2813C19.125 17.3714 18.8942 17.4179 18.661 17.4182H3.339C3.1058 17.4179 2.87496 17.3714 2.65987 17.2813C2.44478 17.1911 2.24972 17.0592 2.086 16.8932C1.7537 16.5562 1.56851 16.1014 1.571 15.6282V6.52815C1.573 6.0579 1.76019 5.60738 2.092 5.27415C2.25547 5.10983 2.44977 4.97941 2.66376 4.89034C2.87775 4.80128 3.10722 4.75534 3.339 4.75515H7.268C7.42253 4.755 7.57355 4.70907 7.702 4.62315C7.83061 4.53696 7.93109 4.41491 7.991 4.27215L9.154 1.58815H12.854L13.978 4.25615C14.0379 4.39895 14.1384 4.521 14.267 4.60715C14.3954 4.69307 14.5465 4.739 14.701 4.73915H18.63C18.8657 4.73509 19.0999 4.77841 19.3185 4.86653C19.5372 4.95465 19.736 5.08578 19.903 5.25215C20.0708 5.41941 20.2037 5.61834 20.294 5.83739C20.3843 6.05643 20.4302 6.29123 20.429 6.52815V15.6282Z" fill="#696969"/>
    <path d="M18.8565 5.54224H16.4995C16.3961 5.54222 16.2937 5.56272 16.1983 5.60254C16.1029 5.64237 16.0163 5.70072 15.9435 5.77423C15.7969 5.92378 15.7148 6.12483 15.7148 6.33424C15.7148 6.54364 15.7969 6.74469 15.9435 6.89424C16.0163 6.96775 16.1029 7.0261 16.1983 7.06593C16.2937 7.10575 16.3961 7.12625 16.4995 7.12624H18.8565C18.9599 7.12619 19.0623 7.10567 19.1577 7.06585C19.2532 7.02603 19.3398 6.96771 19.4125 6.89424C19.5591 6.74469 19.6412 6.54364 19.6412 6.33424C19.6412 6.12483 19.5591 5.92378 19.4125 5.77423C19.3398 5.70077 19.2532 5.64244 19.1577 5.60262C19.0623 5.5628 18.9599 5.54228 18.8565 5.54224Z" fill="#696969"/>
</svg>
