<svg width="21" height="21" viewBox="0 0 21 21" fill="none" xmlns="http://www.w3.org/2000/svg">
    <path d="M10.5 20C15.7467 20 20 15.7467 20 10.5C20 5.25329 15.7467 1 10.5 1C5.25329 1 1 5.25329 1 10.5C1 15.7467 5.25329 20 10.5 20Z" stroke="#F493B8"/>
    <path d="M8.61838 13.7104L5.63438 10.7224C5.54833 10.6363 5.5 10.5196 5.5 10.3979C5.5 10.2762 5.54833 10.1595 5.63438 10.0734L6.28338 9.42438C6.36945 9.33833 6.48617 9.29 6.60788 9.29C6.72958 9.29 6.8463 9.33833 6.93238 9.42438L8.94238 11.4344L13.2424 7.13438C13.3285 7.04833 13.4452 7 13.5669 7C13.6886 7 13.8053 7.04833 13.8914 7.13438L14.5404 7.78338C14.6264 7.86945 14.6748 7.98617 14.6748 8.10788C14.6748 8.22958 14.6264 8.3463 14.5404 8.43238L9.26738 13.7104C9.1813 13.7964 9.06458 13.8448 8.94288 13.8448C8.82117 13.8448 8.70445 13.7964 8.61838 13.7104Z" fill="#F493B8"/>
</svg>
