<svg width="17" height="17" viewBox="0 0 17 17" fill="none" xmlns="http://www.w3.org/2000/svg">
    <path d="M16.2282 17C16.3483 16.9997 16.4668 16.9714 16.574 16.9173C16.6813 16.8633 16.7745 16.785 16.8462 16.6886C16.9179 16.5922 16.9662 16.4805 16.9871 16.3622C17.0081 16.2439 17.0012 16.1224 16.9669 16.0073L15.9462 12.5965C16.9335 10.8033 17.2404 8.71415 16.8103 6.71292C16.3802 4.7117 15.2421 2.9329 13.6052 1.70351C11.9682 0.474122 9.94245 -0.123245 7.90019 0.0211959C5.85793 0.165636 3.93644 1.04219 2.4889 2.48974C1.04137 3.93728 0.165064 5.85854 0.0210621 7.90037C-0.122939 9.9422 0.47504 11.9674 1.70509 13.6037C2.93513 15.24 4.71459 16.3774 6.71636 16.8069C8.71814 17.2364 10.8077 16.9292 12.601 15.9416L16.0088 16.9637C16.0798 16.986 16.1537 16.9983 16.2282 17ZM12.5021 14.3409C12.3613 14.3409 12.2232 14.3794 12.1026 14.4521C10.6471 15.334 8.91895 15.6523 7.24467 15.347C5.57038 15.0417 4.0659 14.1339 3.01547 12.7952C1.96505 11.4564 1.44142 9.77938 1.54351 8.08092C1.6456 6.38246 2.36635 4.7802 3.56958 3.57684C4.77282 2.37349 6.37521 1.65238 8.07402 1.54975C9.77283 1.44712 11.4504 1.97008 12.7898 3.01983C14.1292 4.06957 15.0377 5.5734 15.3436 7.24721C15.6495 8.92102 15.3317 10.6489 14.4502 12.1044C14.3951 12.1964 14.3598 12.2988 14.3465 12.4052C14.3332 12.5117 14.3422 12.6197 14.3729 12.7224L15.0799 15.0764L12.7247 14.3702C12.6529 14.3493 12.5784 14.3389 12.5037 14.3394L12.5021 14.3409Z" fill="#212121"/>
</svg>
