<svg width="165" height="166" viewBox="0 0 165 166" fill="none" xmlns="http://www.w3.org/2000/svg">
    <path d="M82.5 165C127.787 165 164.5 128.287 164.5 83C164.5 37.7127 127.787 1 82.5 1C37.2127 1 0.5 37.7127 0.5 83C0.5 128.287 37.2127 165 82.5 165Z" stroke="#F493B8"/>
    <path d="M83 158.5C124.421 158.5 158 124.921 158 83.5C158 42.0786 124.421 8.5 83 8.5C41.5786 8.5 8 42.0786 8 83.5C8 124.921 41.5786 158.5 83 158.5Z" fill="#F493B8"/>
    <path d="M56.677 79.2079C54.9069 79.2103 53.2099 79.9146 51.9583 81.1662C50.7066 82.4179 50.0024 84.1148 50 85.8849V107.252C50.0024 109.022 50.7066 110.719 51.9583 111.971C53.2099 113.222 54.9069 113.927 56.677 113.929H64.689C66.136 113.928 67.5429 113.453 68.695 112.578V79.2079H56.677Z" fill="#F9FAFE"/>
    <path d="M114.1 89.2239C114.101 88.4438 113.948 87.6712 113.65 86.9504C113.351 86.2297 112.913 85.575 112.361 85.0239C112.987 84.3404 113.462 83.5334 113.756 82.655C114.05 81.7766 114.157 80.8462 114.07 79.9239C113.862 78.2328 113.035 76.6785 111.749 75.5606C110.463 74.4427 108.809 73.8401 107.105 73.8689H90.6052C91.8179 70.427 92.5338 66.8299 92.7312 63.1859C92.7312 57.3929 87.8092 52.5029 84.7192 52.5029C82.9755 52.5295 81.2832 53.0981 79.8772 54.1299C79.7213 54.2556 79.5954 54.4146 79.5089 54.5952C79.4224 54.7759 79.3774 54.9736 79.3772 55.1739V64.2309L71.6852 80.8939L71.3652 81.0569V109.679C73.465 110.64 75.7343 111.177 78.0422 111.257H102.557C103.945 111.277 105.298 110.827 106.397 109.98C107.496 109.132 108.276 107.938 108.609 106.591C108.916 105.238 108.746 103.82 108.126 102.579C109.542 101.869 110.619 100.627 111.12 99.1243C111.622 97.6217 111.506 95.9817 110.8 94.5639C111.791 94.0672 112.625 93.3048 113.207 92.3618C113.79 91.4189 114.099 90.3324 114.1 89.2239Z" fill="#F9FAFE"/>
</svg>
