<svg width="70" height="70" viewBox="0 0 70 70" fill="none" xmlns="http://www.w3.org/2000/svg">
    <path d="M35 70C54.33 70 70 54.33 70 35C70 15.67 54.33 0 35 0C15.67 0 0 15.67 0 35C0 54.33 15.67 70 35 70Z" fill="#FF4242"/>
    <path d="M34.9993 67.9405C53.1922 67.9405 67.9405 53.1922 67.9405 34.9993C67.9405 16.8064 53.1922 2.05811 34.9993 2.05811C16.8064 2.05811 2.05811 16.8064 2.05811 34.9993C2.05811 53.1922 16.8064 67.9405 34.9993 67.9405Z" fill="#F9FAFE"/>
    <path d="M31.4841 21.4399H37.0087V22.3695H39.0038V21.3098C39.004 20.2814 38.1678 19.4446 37.1398 19.4446H31.353C30.325 19.4446 29.4888 20.2814 29.4888 21.3098V22.3695H31.4841V21.4399Z" fill="#FF4242"/>
    <path d="M43.6116 30.2759H24.8817C24.3685 30.2759 23.9645 30.7137 24.0058 31.2254L25.5717 50.5878C25.659 51.6687 26.5606 52.5012 27.6437 52.5012H40.8494C41.9325 52.5012 42.8341 51.6687 42.9214 50.5876L44.4873 31.2254C44.5289 30.7137 44.1249 30.2759 43.6116 30.2759ZM29.4169 50.436C29.396 50.4373 29.3751 50.438 29.3544 50.438C28.8313 50.438 28.3923 50.0307 28.3597 49.5016L27.3784 33.6061C27.3446 33.0561 27.763 32.5827 28.3128 32.5489C28.8608 32.5156 29.3362 32.933 29.37 33.4833L30.351 49.3788C30.3851 49.9288 29.9667 50.402 29.4169 50.436ZM35.2555 49.4403C35.2555 49.9911 34.8088 50.4378 34.2578 50.4378C33.7067 50.4378 33.2601 49.9911 33.2601 49.4403V33.5446C33.2601 32.9935 33.7067 32.5469 34.2578 32.5469C34.8086 32.5469 35.2555 32.9935 35.2555 33.5446V49.4403ZM41.1149 33.6033L40.178 49.4989C40.147 50.029 39.7072 50.4378 39.1831 50.4378C39.1635 50.4378 39.1435 50.4373 39.1236 50.4363C38.5736 50.4037 38.1539 49.9316 38.1865 49.3816L39.1231 33.4858C39.1554 32.9358 39.626 32.5161 40.1775 32.5487C40.7276 32.5809 41.1472 33.0533 41.1149 33.6033Z" fill="#FF4242"/>
    <path d="M47.0615 27.1956L46.4063 25.2315C46.2335 24.7138 45.7488 24.3645 45.2028 24.3645H23.2899C22.7442 24.3645 22.2592 24.7138 22.0867 25.2315L21.4315 27.1956C21.3052 27.5744 21.4696 27.9608 21.7765 28.1535C21.9016 28.2319 22.0496 28.2791 22.2123 28.2791H46.2807C46.4433 28.2791 46.5916 28.2319 46.7165 28.1532C47.0234 27.9605 47.1878 27.5742 47.0615 27.1956Z" fill="#FF4242"/>
</svg>
