<svg width="36" height="31" viewBox="0 0 36 31" fill="none" xmlns="http://www.w3.org/2000/svg">
<path d="M4.38216 11.9411C6.22004 6.92954 11.6891 3.29407 18.1497 3.29407C25.6307 3.29407 31.7819 8.16977 32.5059 14.4117L29.6274 13.909M31.8453 19.3529C30.9186 21.8628 29.0845 24.054 26.609 25.6088C24.1335 27.1636 21.1452 28.0012 18.0777 27.9999C10.5967 27.9999 4.44548 23.1242 3.72156 16.8823L6.59999 17.3851" stroke="black" stroke-width="1.5" stroke-linecap="round" stroke-linejoin="round"/>
<path d="M13.799 17.5345V19.9953C13.7957 20.1935 13.8509 20.3893 13.9597 20.5643C14.0684 20.7393 14.227 20.8877 14.4207 20.9958C15.6354 21.6481 16.5579 21.8395 18.1209 21.8803C19.5616 21.9137 20.4654 21.7197 21.8096 20.9983C22.0066 20.8894 22.168 20.7393 22.2788 20.5621C22.3896 20.3849 22.4461 20.1864 22.4429 19.9854V17.5345M25.3256 14.4303V18.1547M10.9896 14.219C11.5106 13.2753 14.7388 11.6323 17.6848 10.8207C17.9688 10.7433 18.2747 10.7494 18.5541 10.838C21.1591 11.6558 24.0577 12.8948 25.1098 13.8991C25.6581 14.4241 25.1213 15.0936 24.4578 15.5074C23.1092 16.3487 21.6225 17.0021 18.6175 17.9941C18.2991 18.0988 17.9474 18.101 17.6273 18.0003C14.5473 17.0182 11.666 15.752 11.0141 14.6365C10.9737 14.573 10.9506 14.5025 10.9463 14.4302C10.9421 14.3579 10.9569 14.2857 10.9896 14.219Z" stroke="black" stroke-width="1.5" stroke-linecap="round" stroke-linejoin="round"/>
</svg>
