<svg width="27" height="27" viewBox="0 0 27 27" fill="none" xmlns="http://www.w3.org/2000/svg">
    <path d="M19.75 1C21.4076 1 22.9973 1.65848 24.1694 2.83058C25.3415 4.00268 26 5.5924 26 7.25V19.75C26 21.4076 25.3415 22.9973 24.1694 24.1694C22.9973 25.3415 21.4076 26 19.75 26H7.25C5.5924 26 4.00268 25.3415 2.83058 24.1694C1.65848 22.9973 1 21.4076 1 19.75V7.25C1 5.5924 1.65848 4.00268 2.83058 2.83058C4.00268 1.65848 5.5924 1 7.25 1L19.75 1Z" stroke="#F9FAFE" stroke-linecap="round" stroke-linejoin="round"/>
    <path d="M17.989 15.7537C17.4404 16.8109 16.5325 17.6376 15.4287 18.0849C14.3249 18.5322 13.0976 18.5708 11.9678 18.1937C10.838 17.8167 9.87999 17.0487 9.2661 16.028C8.65222 15.0074 8.42284 13.8011 8.61925 12.6264C8.81565 11.4517 9.42495 10.3856 10.3375 9.6202C11.25 8.85476 12.4057 8.4402 13.5967 8.45114C14.7877 8.46208 15.9357 8.8978 16.834 9.67988C17.7323 10.462 18.3219 11.539 18.4967 12.7171C18.651 13.7575 18.4734 14.8201 17.989 15.7537V15.7537Z" stroke="#F9FAFE" stroke-linecap="round" stroke-linejoin="round"/>
    <path d="M20.3779 6.62524H20.3928" stroke="#F9FAFE" stroke-linecap="round" stroke-linejoin="round"/>
</svg>
