<svg width="264" height="231" viewBox="0 0 264 231" fill="none" xmlns="http://www.w3.org/2000/svg">
    <path d="M238.531 126.108C238.531 146.636 232.444 166.702 221.039 183.77C209.635 200.838 193.425 214.14 174.46 221.996C155.495 229.851 134.627 231.907 114.494 227.902C94.3607 223.897 75.8674 214.012 61.3523 199.497C46.8372 184.982 36.9523 166.489 32.9475 146.356C28.9427 126.223 30.998 105.354 38.8534 86.3892C46.7089 67.4243 60.0116 51.2147 77.0795 39.8101C94.1473 28.4056 114.214 22.3183 134.741 22.3181C162.268 22.3184 188.667 33.2535 208.132 52.7178C227.596 72.1821 238.531 98.5814 238.531 126.108V126.108Z" stroke="#E9EAEC" stroke-miterlimit="10" stroke-dasharray="5.02 5.02"/>
    <path d="M211.816 126.108C211.816 141.352 207.296 156.254 198.827 168.929C190.357 181.604 178.32 191.482 164.236 197.316C150.153 203.15 134.656 204.676 119.704 201.702C104.753 198.728 91.0199 191.387 80.2408 180.608C69.4617 169.829 62.121 156.096 59.147 141.145C56.1731 126.194 57.6994 110.696 63.533 96.6127C69.3667 82.5291 79.2456 70.4916 91.9205 62.0225C104.595 53.5534 119.497 49.033 134.741 49.033C144.863 49.033 154.885 51.0266 164.236 54.9C173.588 58.7734 182.084 64.4507 189.241 71.6078C196.398 78.7648 202.076 87.2615 205.949 96.6127C209.822 105.964 211.816 115.986 211.816 126.108V126.108Z" stroke="#E9EAEC" stroke-miterlimit="10" stroke-dasharray="5.05 5.05"/>
    <path d="M11.345 140.082L9.41797 140.023" stroke="#D2D8DF" stroke-miterlimit="10" stroke-linecap="round"/>
    <path d="M9.96208 136.429L8.58008 137.72" stroke="#D2D8DF" stroke-miterlimit="10" stroke-linecap="round"/>
    <path d="M6.36005 134.76L6.33105 136.644" stroke="#D2D8DF" stroke-miterlimit="10" stroke-linecap="round"/>
    <path d="M2.64844 136.054L3.99044 137.428" stroke="#D2D8DF" stroke-miterlimit="10" stroke-linecap="round"/>
    <path d="M1 139.552L2.926 139.611" stroke="#D2D8DF" stroke-miterlimit="10" stroke-linecap="round"/>
    <path d="M2.38184 143.206L3.76484 141.915" stroke="#D2D8DF" stroke-miterlimit="10" stroke-linecap="round"/>
    <path d="M5.98438 144.875L6.01337 142.991" stroke="#D2D8DF" stroke-miterlimit="10" stroke-linecap="round"/>
    <path d="M9.69747 143.581L8.35547 142.207" stroke="#D2D8DF" stroke-miterlimit="10" stroke-linecap="round"/>
    <path d="M262.648 113.222L261.801 114.139" stroke="#D2D8DF" stroke-miterlimit="10" stroke-linecap="round"/>
    <path d="M258.671 114.019L259.31 114.608" stroke="#D2D8DF" stroke-miterlimit="10" stroke-linecap="round"/>
    <path d="M258.025 118.084L258.872 117.167" stroke="#D2D8DF" stroke-miterlimit="10" stroke-linecap="round"/>
    <path d="M262.002 117.287L261.364 116.698" stroke="#D2D8DF" stroke-miterlimit="10" stroke-linecap="round"/>
    <path d="M185.07 5.44703L183.021 5.39203" stroke="#D2D8DF" stroke-miterlimit="10" stroke-linecap="round"/>
    <path d="M179.769 0.5L179.738 2.251" stroke="#D2D8DF" stroke-miterlimit="10" stroke-linecap="round"/>
    <path d="M174.066 4.9541L176.115 5.0081" stroke="#D2D8DF" stroke-miterlimit="10" stroke-linecap="round"/>
    <path d="M179.368 9.90102L179.399 8.15002" stroke="#D2D8DF" stroke-miterlimit="10" stroke-linecap="round"/>
    <path d="M33.3371 194.506C32.2322 194.999 31.2394 195.712 30.4194 196.602C29.5994 197.492 28.9695 198.539 28.5681 199.681C28.4271 197.295 26.9121 194.296 25.2451 193.864C26.3944 193.32 27.4171 192.542 28.2478 191.58C29.0784 190.617 29.6984 189.491 30.0681 188.275C29.9621 190.609 32.0811 193.998 33.3371 194.506Z" fill="#EBECEF"/>
    <path d="M67.8587 14.8259C66.9929 15.097 66.1916 15.5421 65.5038 16.1338C64.816 16.7254 64.2562 17.4513 63.8587 18.2669C63.9597 16.4779 63.0867 14.1129 61.8867 13.6469C62.7897 13.3412 63.6189 12.85 64.3208 12.2049C65.0228 11.5597 65.582 10.775 65.9627 9.90088C65.6817 11.6309 66.9627 14.3389 67.8627 14.8259" fill="#EBECEF"/>
    <path d="M218.56 27.819C218.017 27.8068 217.489 27.6339 217.044 27.3219C216.599 27.01 216.257 26.5731 216.06 26.0665C215.863 25.5599 215.821 25.0063 215.938 24.4757C216.056 23.9451 216.328 23.4612 216.721 23.0853C217.113 22.7094 217.608 22.4582 218.144 22.3637C218.679 22.2691 219.23 22.3353 219.728 22.5539C220.225 22.7725 220.647 23.1337 220.939 23.5919C221.232 24.0501 221.382 24.5846 221.37 25.128C221.363 25.4894 221.284 25.8457 221.139 26.1766C220.994 26.5075 220.785 26.8065 220.524 27.0564C220.263 27.3064 219.955 27.5024 219.618 27.6333C219.281 27.7641 218.922 27.8273 218.56 27.819Z" fill="#D1D9E0"/>
    <path d="M218.567 207.97C218.094 207.96 217.634 207.809 217.246 207.538C216.858 207.266 216.559 206.886 216.388 206.445C216.216 206.003 216.179 205.521 216.281 205.059C216.384 204.596 216.621 204.175 216.963 203.847C217.305 203.52 217.736 203.301 218.203 203.219C218.669 203.137 219.149 203.195 219.583 203.385C220.016 203.576 220.383 203.891 220.638 204.29C220.892 204.69 221.022 205.156 221.012 205.629C220.998 206.264 220.733 206.867 220.274 207.306C219.816 207.745 219.202 207.984 218.567 207.97Z" fill="#EBECEF"/>
    <path d="M19.8217 64.303C19.5287 64.2966 19.2442 64.2035 19.0041 64.0354C18.764 63.8673 18.5791 63.6318 18.4729 63.3586C18.3666 63.0855 18.3438 62.787 18.4071 62.5008C18.4705 62.2147 18.6173 61.9538 18.829 61.751C19.0407 61.5483 19.3077 61.4129 19.5963 61.3619C19.8849 61.311 20.1822 61.3467 20.4505 61.4647C20.7188 61.5826 20.9461 61.7775 21.1037 62.0246C21.2612 62.2717 21.342 62.56 21.3357 62.853C21.3317 63.0477 21.2893 63.2396 21.211 63.4179C21.1327 63.5962 21.02 63.7573 20.8794 63.892C20.7388 64.0266 20.573 64.1323 20.3915 64.2028C20.21 64.2733 20.0164 64.3074 19.8217 64.303V64.303Z" stroke="#D2D8DF" stroke-miterlimit="10" stroke-linecap="round"/>
    <path d="M179.399 58.567C179.399 60.4524 178.84 62.2954 177.792 63.863C176.744 65.4306 175.255 66.6523 173.513 67.3737C171.771 68.095 169.855 68.2837 168.006 67.9157C166.156 67.5478 164.458 66.6398 163.125 65.3065C161.792 63.9733 160.884 62.2746 160.516 60.4254C160.148 58.5763 160.337 56.6595 161.059 54.9177C161.78 53.1758 163.002 51.687 164.57 50.6396C166.138 49.5921 167.981 49.033 169.866 49.033C172.394 49.0333 174.819 50.0379 176.607 51.8258C178.395 53.6138 179.399 56.0386 179.399 58.567Z" fill="#F9FAFE"/>
    <path d="M135.226 153.357C135.01 153.357 134.801 153.279 134.637 153.138C131.495 150.47 128.624 147.497 126.068 144.263C123.876 141.54 122.01 138.57 120.507 135.414C118.932 132.191 118.077 128.664 118 125.077C118 124.808 118 124.543 118 124.287C118.123 119.926 119.942 115.785 123.069 112.744C126.197 109.703 130.387 108.001 134.75 108C134.911 108 135.074 108 135.235 108.007C135.396 108.014 135.548 108 135.707 108H136.025C138.226 108.041 140.397 108.516 142.415 109.396C144.433 110.277 146.257 111.546 147.784 113.132C149.311 114.718 150.511 116.589 151.314 118.639C152.118 120.688 152.51 122.876 152.468 125.077C152.358 128.464 151.505 131.786 149.968 134.806C148.43 137.957 146.566 140.938 144.407 143.7C141.814 147.083 138.94 150.24 135.816 153.139C135.652 153.28 135.442 153.357 135.226 153.357ZM135.235 117.076C133.621 117.076 132.043 117.555 130.701 118.453C129.358 119.35 128.312 120.625 127.695 122.116C127.077 123.608 126.916 125.249 127.231 126.832C127.546 128.416 128.324 129.87 129.465 131.011C130.607 132.153 132.061 132.93 133.645 133.245C135.228 133.56 136.869 133.398 138.361 132.781C139.852 132.163 141.127 131.117 142.024 129.775C142.921 128.432 143.4 126.854 143.4 125.24C143.398 123.075 142.537 121 141.006 119.47C139.475 117.939 137.4 117.079 135.235 117.077V117.076Z" fill="#F493B8"/>
</svg>
