<svg width="17" height="20" viewBox="0 0 17 20" fill="none" xmlns="http://www.w3.org/2000/svg">
    <path d="M10.1406 17.5695C10.418 17.3219 10.8438 17.3065 11.14 17.5495C11.4659 17.8168 11.5116 18.2954 11.2421 18.6186C10.5777 19.4802 9.54988 19.9899 8.45625 20L8.23913 19.9909C7.23083 19.9177 6.2976 19.4205 5.67931 18.6186L5.6136 18.5269C5.42044 18.2101 5.48512 17.7925 5.78134 17.5495C6.10718 17.2822 6.5898 17.3275 6.85929 17.6507C6.97764 17.8076 7.11807 17.9469 7.27627 18.0642C7.69915 18.3765 8.23019 18.5084 8.75155 18.4308C9.2729 18.3531 9.74145 18.0723 10.0532 17.6507H10.0621L10.1406 17.5695ZM8.46512 0C11.5348 0 14.9772 2.16454 15.3675 5.64012V7.45271C15.5008 8.10691 15.807 8.71423 16.2548 9.21249C16.2813 9.24259 16.305 9.27498 16.3257 9.30928C16.7317 9.92038 16.9646 10.6285 17 11.3594L16.9734 11.5442C17.004 12.5445 16.6701 13.5223 16.033 14.2983C15.2193 15.1763 14.1069 15.7247 12.91 15.8381C9.96167 16.1617 6.98632 16.1617 4.03799 15.8381C2.85854 15.717 1.76557 15.1687 0.968272 14.2983C0.320616 13.5334 -0.0232529 12.5603 0.00122208 11.5618V11.4386C0.0499997 10.6858 0.301205 9.95964 0.728727 9.33568L0.799703 9.24769C1.24432 8.74733 1.55006 8.14088 1.6869 7.4879V5.67532L1.73596 5.57406C1.88512 5.31699 2.17563 5.16664 2.47989 5.19956C2.82218 5.23659 3.09705 5.4964 3.15079 5.8337V7.64628C3.15424 7.67845 3.15424 7.7109 3.15079 7.74307C2.96606 8.65082 2.54382 9.49442 1.92645 10.1892C1.6887 10.5648 1.55412 10.9955 1.53608 11.4386V11.6322C1.51638 12.2554 1.72433 12.8647 2.12163 13.348C2.67247 13.9123 3.40907 14.2619 4.19768 14.3335C7.05197 14.6415 9.93151 14.6415 12.7858 14.3335C13.596 14.2597 14.3506 13.8934 14.9062 13.304C15.284 12.8322 15.4819 12.2433 15.4651 11.641V11.4386C15.4469 10.994 15.3157 10.5612 15.0836 10.1804C14.4406 9.4935 13.9935 8.64922 13.7883 7.73427C13.7849 7.7021 13.7849 7.66966 13.7883 7.63748V5.8161C13.531 3.15882 10.8606 1.51342 8.5361 1.51342C7.54786 1.51116 6.57587 1.76277 5.7148 2.24373L5.60934 2.29608C5.39253 2.38363 5.14447 2.36826 4.93831 2.24943C4.69779 2.1108 4.55241 1.85333 4.55891 1.5775C4.56541 1.30168 4.72276 1.05122 4.96955 0.923889C6.03654 0.326071 7.23966 0.00808272 8.46512 0Z" fill="#696969"/>
</svg>
