<svg width="21" height="26" viewBox="0 0 21 26" fill="none" xmlns="http://www.w3.org/2000/svg">
    <path d="M0.600984 25.852C0.783243 25.9542 0.989197 26.0052 1.19748 25.9996C1.40576 25.994 1.60876 25.932 1.7854 25.8201L10.5023 20.3022L19.2193 25.8201C19.3946 25.9313 19.596 25.9933 19.8027 25.9997C20.0109 26.0043 20.2165 25.9534 20.399 25.852C20.5812 25.7496 20.7331 25.5997 20.8388 25.4179C20.9444 25.2361 21.0001 25.0289 21 24.8179V3.54541C21 2.60511 20.6312 1.7033 19.9746 1.03841C19.3181 0.373513 18.4277 0 17.4992 0H3.50078C2.57231 0 1.68189 0.373513 1.02537 1.03841C0.368846 1.7033 1.37757e-07 2.60511 1.37757e-07 3.54541V24.8179C-0.000101073 25.0289 0.0555699 25.2361 0.16125 25.4179C0.26693 25.5997 0.418783 25.7496 0.600984 25.852ZM2.33385 3.54541C2.33385 3.23198 2.45681 2.9314 2.67565 2.70977C2.89449 2.48814 3.19129 2.36361 3.50078 2.36361H17.5039C17.8134 2.36361 18.1102 2.48814 18.329 2.70977C18.5479 2.9314 18.6708 3.23198 18.6708 3.54541V22.6907L11.1208 17.9114C10.9353 17.7941 10.721 17.7318 10.5023 17.7318C10.2836 17.7318 10.0693 17.7941 9.88386 17.9114L2.33385 22.6907V3.54541Z" fill="#F9FAFE"/>
</svg>
