<svg width="19" height="21" viewBox="0 0 19 21" fill="none" xmlns="http://www.w3.org/2000/svg">
    <path d="M17.8555 10.4082H17.8784V10.477H17.8555V10.4082Z" fill="#F9FAFE"/>
    <path d="M3.69504 13.2999H1.17042C0.527979 13.2999 0 12.7721 0 12.1064V2.14601C0 1.5034 0.527815 0.975586 1.17042 0.975586H11.0161C11.6587 0.975586 12.1865 1.5034 12.1865 2.14601V4.69349H11.498L11.4981 2.14601C11.4981 1.87066 11.2686 1.66397 11.0161 1.66397H1.17042C0.895065 1.66397 0.688382 1.89354 0.688382 2.14601V12.1064C0.688382 12.3818 0.91795 12.5885 1.17042 12.5885H3.69503L3.69504 13.2999Z" fill="#F9FAFE"/>
    <path d="M6.63284 16.6965H4.49855C3.85594 16.6965 3.32812 16.1687 3.32812 15.5261V5.51979C3.32812 4.87718 3.85594 4.34937 4.49855 4.34937H14.3672C15.0098 4.34937 15.5376 4.87718 15.5376 5.51979V7.76888H14.849V5.51979C14.849 5.24443 14.6195 5.03775 14.367 5.03775H4.49838C4.22303 5.03775 4.01635 5.26732 4.01635 5.51979V15.5032C4.01635 15.7785 4.24592 15.9852 4.49838 15.9852H6.63268L6.63284 16.6965Z" fill="#F9FAFE"/>
    <path d="M17.6501 20.0247H7.48308C6.84048 20.0247 6.31266 19.4969 6.31266 18.8543L6.3125 8.54957C6.3125 7.90697 6.84032 7.37915 7.48292 7.37915H17.6499C18.2925 7.37915 18.8203 7.90697 18.8203 8.54957V18.8543C18.8206 19.4969 18.2927 20.0247 17.6501 20.0247H17.6501Z" fill="#F9FAFE"/>
</svg>
