<svg width="19" height="24" viewBox="0 0 19 24" fill="none" xmlns="http://www.w3.org/2000/svg">
    <path d="M7.33057 1.44873H11.3417V2.12366H12.7902V1.35425C12.7904 0.607544 12.1832 0 11.4369 0H7.23535C6.48901 0 5.88184 0.607544 5.88184 1.35425V2.12366H7.33057V1.44873Z" fill="#FF4242"/>
    <path d="M16.1354 7.86328H2.53648C2.16386 7.86328 1.87052 8.18115 1.90055 8.55267L3.03746 22.6108C3.10081 23.3956 3.75541 24 4.54185 24H14.1298C14.9162 24 15.5708 23.3956 15.6342 22.6106L16.7711 8.55267C16.8013 8.18115 16.508 7.86328 16.1354 7.86328ZM5.82926 22.5005C5.81407 22.5015 5.79887 22.502 5.78385 22.502C5.40409 22.502 5.08531 22.2063 5.06169 21.8221L4.34922 10.2812C4.32469 9.88184 4.62846 9.53815 5.02763 9.51361C5.42552 9.48944 5.77067 9.79248 5.79521 10.192L6.50749 21.733C6.53221 22.1323 6.22843 22.4758 5.82926 22.5005ZM10.0683 21.7776C10.0683 22.1776 9.74406 22.5018 9.34397 22.5018C8.94389 22.5018 8.61961 22.1776 8.61961 21.7776V10.2365C8.61961 9.83643 8.94389 9.51215 9.34397 9.51215C9.74388 9.51215 10.0683 9.83643 10.0683 10.2365V21.7776ZM14.3226 10.2792L13.6424 21.8201C13.6199 22.205 13.3005 22.5018 12.92 22.5018C12.9057 22.5018 12.8913 22.5015 12.8768 22.5007C12.4775 22.4771 12.1728 22.1343 12.1964 21.735L12.8764 10.1938C12.8999 9.79449 13.2416 9.48981 13.642 9.51343C14.0414 9.53687 14.346 9.87982 14.3226 10.2792Z" fill="#FF4242"/>
    <path d="M18.6397 5.62781L18.164 4.20178C18.0386 3.82587 17.6867 3.57227 17.2903 3.57227H1.38041C0.984167 3.57227 0.632056 3.82587 0.506811 4.20178L0.0311033 5.62781C-0.0606326 5.90283 0.0587522 6.18335 0.281592 6.32324C0.372412 6.38019 0.479895 6.41443 0.597998 6.41443H18.0729C18.191 6.41443 18.2986 6.38019 18.3893 6.32306C18.6121 6.18317 18.7315 5.90265 18.6397 5.62781Z" fill="#FF4242"/>
</svg>
