<svg width="23" height="23" viewBox="0 0 23 23" fill="none" xmlns="http://www.w3.org/2000/svg">
    <path d="M11.5 23C17.8513 23 23 17.8513 23 11.5C23 5.14873 17.8513 0 11.5 0C5.14873 0 0 5.14873 0 11.5C0 17.8513 5.14873 23 11.5 23Z" fill="#F9FAFE"/>
    <path d="M13.6171 6C13.6427 6 13.6683 6 13.6953 6C13.7581 6.77574 13.462 7.35538 13.1021 7.77513C12.7491 8.19198 12.2655 8.59628 11.4835 8.53493C11.4314 7.7703 11.7279 7.23365 12.0873 6.81487C12.4206 6.42458 13.0316 6.07728 13.6171 6Z" fill="#212121"/>
    <path d="M15.9845 14.0743C15.9845 14.0821 15.9845 14.0888 15.9845 14.0961C15.7647 14.7617 15.4512 15.3321 15.0687 15.8615C14.7195 16.3422 14.2915 16.9889 13.5273 16.9889C12.867 16.9889 12.4284 16.5643 11.7517 16.5528C11.0359 16.5412 10.6422 16.9078 9.98771 17C9.91284 17 9.83797 17 9.76455 17C9.28394 16.9305 8.89606 16.5499 8.61349 16.2069C7.78027 15.1935 7.13639 13.8845 7.0166 12.2094C7.0166 12.0451 7.0166 11.8814 7.0166 11.7172C7.06732 10.5183 7.64985 9.54353 8.42415 9.07113C8.83279 8.81996 9.39455 8.60598 10.0201 8.70162C10.2882 8.74316 10.562 8.83493 10.8021 8.92574C11.0296 9.01317 11.3141 9.16822 11.5836 9.16001C11.7662 9.1547 11.9478 9.05954 12.1319 8.9924C12.6709 8.79774 13.1994 8.57458 13.8959 8.6794C14.733 8.80595 15.3271 9.17788 15.6942 9.75172C14.9861 10.2024 14.4263 10.8815 14.5219 12.0413C14.6069 13.0948 15.2194 13.7111 15.9845 14.0743Z" fill="#212121"/>
</svg>
