<svg width="230" height="101" viewBox="0 0 230 101" fill="none" xmlns="http://www.w3.org/2000/svg">
    <path d="M204.008 95.098C203.859 95.098 203.737 95.0653 203.644 95C203.56 94.9253 203.509 94.832 203.49 94.72C203.481 94.5987 203.509 94.4633 203.574 94.314L207.424 85.55C207.508 85.3633 207.606 85.2327 207.718 85.158C207.839 85.074 207.97 85.032 208.11 85.032C208.25 85.032 208.376 85.074 208.488 85.158C208.609 85.2327 208.707 85.3633 208.782 85.55L212.646 94.314C212.721 94.4633 212.749 94.5987 212.73 94.72C212.721 94.8413 212.674 94.9347 212.59 95C212.506 95.0653 212.389 95.098 212.24 95.098C212.072 95.098 211.937 95.056 211.834 94.972C211.731 94.8787 211.647 94.748 211.582 94.58L210.546 92.186L211.106 92.48H205.086L205.66 92.186L204.638 94.58C204.554 94.7573 204.465 94.888 204.372 94.972C204.279 95.056 204.157 95.098 204.008 95.098ZM208.096 86.474L205.842 91.78L205.506 91.514H210.686L210.378 91.78L208.124 86.474H208.096ZM216.477 95.126C216.057 95.126 215.633 95.0747 215.203 94.972C214.783 94.8693 214.391 94.692 214.027 94.44C213.934 94.3747 213.869 94.3 213.831 94.216C213.794 94.1227 213.78 94.034 213.789 93.95C213.808 93.8567 213.845 93.7773 213.901 93.712C213.967 93.6467 214.041 93.6093 214.125 93.6C214.219 93.5813 214.321 93.6 214.433 93.656C214.797 93.88 215.147 94.0387 215.483 94.132C215.829 94.216 216.169 94.258 216.505 94.258C217.037 94.258 217.439 94.16 217.709 93.964C217.98 93.768 218.115 93.502 218.115 93.166C218.115 92.9047 218.027 92.6993 217.849 92.55C217.672 92.3913 217.392 92.27 217.009 92.186L215.735 91.906C215.147 91.7847 214.709 91.5747 214.419 91.276C214.139 90.9773 213.999 90.59 213.999 90.114C213.999 89.694 214.107 89.3347 214.321 89.036C214.545 88.728 214.858 88.49 215.259 88.322C215.661 88.154 216.127 88.07 216.659 88.07C217.07 88.07 217.457 88.126 217.821 88.238C218.195 88.3407 218.531 88.5087 218.829 88.742C218.923 88.8073 218.983 88.8867 219.011 88.98C219.049 89.064 219.053 89.1527 219.025 89.246C219.007 89.33 218.965 89.4047 218.899 89.47C218.834 89.526 218.755 89.5587 218.661 89.568C218.568 89.5773 218.47 89.5493 218.367 89.484C218.087 89.2973 217.803 89.162 217.513 89.078C217.224 88.9847 216.939 88.938 216.659 88.938C216.137 88.938 215.74 89.0407 215.469 89.246C215.199 89.4513 215.063 89.722 215.063 90.058C215.063 90.3193 215.147 90.534 215.315 90.702C215.483 90.87 215.745 90.9913 216.099 91.066L217.373 91.332C217.98 91.4627 218.433 91.6727 218.731 91.962C219.039 92.242 219.193 92.6247 219.193 93.11C219.193 93.726 218.946 94.216 218.451 94.58C217.957 94.944 217.299 95.126 216.477 95.126ZM221.481 95.098C221.295 95.098 221.155 95.0467 221.061 94.944C220.968 94.8413 220.921 94.6967 220.921 94.51V85.606C220.921 85.4193 220.968 85.2793 221.061 85.186C221.155 85.0833 221.295 85.032 221.481 85.032C221.659 85.032 221.799 85.0833 221.901 85.186C222.004 85.2793 222.055 85.4193 222.055 85.606V89.708H221.873C222.069 89.1667 222.387 88.7607 222.825 88.49C223.273 88.21 223.787 88.07 224.365 88.07C224.907 88.07 225.355 88.168 225.709 88.364C226.073 88.56 226.344 88.8587 226.521 89.26C226.699 89.652 226.787 90.1513 226.787 90.758V94.51C226.787 94.6967 226.736 94.8413 226.633 94.944C226.54 95.0467 226.405 95.098 226.227 95.098C226.041 95.098 225.896 95.0467 225.793 94.944C225.7 94.8413 225.653 94.6967 225.653 94.51V90.828C225.653 90.1933 225.527 89.7313 225.275 89.442C225.033 89.1433 224.641 88.994 224.099 88.994C223.474 88.994 222.975 89.19 222.601 89.582C222.237 89.9647 222.055 90.478 222.055 91.122V94.51C222.055 94.902 221.864 95.098 221.481 95.098Z" fill="#F9FAFE"/>
    <path d="M2.43 17C2.142 17 1.92 16.922 1.764 16.766C1.608 16.61 1.53 16.388 1.53 16.1V5.21C1.53 4.922 1.608 4.7 1.764 4.544C1.92 4.388 2.142 4.31 2.43 4.31H5.904C7.98 4.31 9.576 4.856 10.692 5.948C11.82 7.028 12.384 8.594 12.384 10.646C12.384 11.666 12.24 12.572 11.952 13.364C11.664 14.156 11.244 14.822 10.692 15.362C10.14 15.89 9.462 16.298 8.658 16.586C7.866 16.862 6.948 17 5.904 17H2.43ZM3.204 15.578H5.796C6.612 15.578 7.32 15.476 7.92 15.272C8.52 15.068 9.018 14.762 9.414 14.354C9.822 13.946 10.128 13.436 10.332 12.824C10.536 12.2 10.638 11.474 10.638 10.646C10.638 9.002 10.23 7.772 9.414 6.956C8.61 6.14 7.404 5.732 5.796 5.732H3.204V15.578ZM18.8113 17.162C17.8633 17.162 17.0473 16.982 16.3633 16.622C15.6913 16.25 15.1693 15.728 14.7973 15.056C14.4253 14.372 14.2393 13.568 14.2393 12.644C14.2393 11.732 14.4193 10.934 14.7793 10.25C15.1513 9.566 15.6553 9.032 16.2913 8.648C16.9393 8.264 17.6773 8.072 18.5053 8.072C19.0933 8.072 19.6213 8.174 20.0893 8.378C20.5693 8.57 20.9773 8.852 21.3133 9.224C21.6493 9.596 21.9013 10.052 22.0693 10.592C22.2493 11.12 22.3393 11.72 22.3393 12.392C22.3393 12.584 22.2793 12.734 22.1593 12.842C22.0513 12.938 21.8893 12.986 21.6733 12.986H15.5173V11.942H21.2593L20.9533 12.194C20.9533 11.57 20.8573 11.042 20.6653 10.61C20.4853 10.166 20.2153 9.83 19.8553 9.602C19.5073 9.374 19.0693 9.26 18.5413 9.26C17.9653 9.26 17.4733 9.398 17.0653 9.674C16.6573 9.938 16.3453 10.316 16.1293 10.808C15.9133 11.288 15.8053 11.846 15.8053 12.482V12.59C15.8053 13.67 16.0633 14.486 16.5793 15.038C17.0953 15.59 17.8393 15.866 18.8113 15.866C19.1953 15.866 19.5853 15.818 19.9813 15.722C20.3893 15.626 20.7793 15.452 21.1513 15.2C21.3313 15.092 21.4933 15.044 21.6373 15.056C21.7933 15.056 21.9193 15.104 22.0153 15.2C22.1113 15.284 22.1713 15.392 22.1953 15.524C22.2193 15.644 22.2013 15.776 22.1413 15.92C22.0813 16.064 21.9673 16.19 21.7993 16.298C21.4033 16.574 20.9293 16.79 20.3773 16.946C19.8373 17.09 19.3153 17.162 18.8113 17.162ZM27.4005 17.162C26.8605 17.162 26.3145 17.102 25.7625 16.982C25.2225 16.85 24.7125 16.628 24.2325 16.316C24.1005 16.232 24.0045 16.13 23.9445 16.01C23.8965 15.878 23.8785 15.752 23.8905 15.632C23.9145 15.5 23.9685 15.386 24.0525 15.29C24.1365 15.194 24.2385 15.14 24.3585 15.128C24.4905 15.104 24.6285 15.134 24.7725 15.218C25.2405 15.482 25.6905 15.668 26.1225 15.776C26.5665 15.884 27.0045 15.938 27.4365 15.938C28.0965 15.938 28.5945 15.818 28.9305 15.578C29.2665 15.338 29.4345 15.02 29.4345 14.624C29.4345 14.288 29.3205 14.03 29.0925 13.85C28.8765 13.658 28.5345 13.514 28.0665 13.418L26.3925 13.076C25.6485 12.908 25.0845 12.632 24.7005 12.248C24.3285 11.852 24.1425 11.348 24.1425 10.736C24.1425 10.196 24.2865 9.728 24.5745 9.332C24.8745 8.924 25.2885 8.612 25.8165 8.396C26.3445 8.18 26.9505 8.072 27.6345 8.072C28.1625 8.072 28.6605 8.144 29.1285 8.288C29.6085 8.42 30.0405 8.624 30.4245 8.9C30.5685 8.984 30.6585 9.092 30.6945 9.224C30.7425 9.344 30.7485 9.47 30.7125 9.602C30.6885 9.722 30.6345 9.824 30.5505 9.908C30.4665 9.992 30.3585 10.046 30.2265 10.07C30.0945 10.082 29.9505 10.046 29.7945 9.962C29.4465 9.722 29.0865 9.554 28.7145 9.458C28.3545 9.35 27.9945 9.296 27.6345 9.296C26.9865 9.296 26.4945 9.422 26.1585 9.674C25.8345 9.926 25.6725 10.256 25.6725 10.664C25.6725 10.976 25.7685 11.234 25.9605 11.438C26.1645 11.642 26.4825 11.792 26.9145 11.888L28.5885 12.23C29.3685 12.398 29.9565 12.668 30.3525 13.04C30.7485 13.4 30.9465 13.892 30.9465 14.516C30.9465 15.332 30.6225 15.98 29.9745 16.46C29.3385 16.928 28.4805 17.162 27.4005 17.162ZM33.8877 17.09C33.6357 17.09 33.4377 17.012 33.2937 16.856C33.1497 16.7 33.0777 16.484 33.0777 16.208V9.026C33.0777 8.738 33.1497 8.522 33.2937 8.378C33.4377 8.222 33.6357 8.144 33.8877 8.144C34.1517 8.144 34.3557 8.222 34.4997 8.378C34.6437 8.522 34.7157 8.738 34.7157 9.026V16.208C34.7157 16.484 34.6437 16.7 34.4997 16.856C34.3677 17.012 34.1637 17.09 33.8877 17.09ZM33.8877 6.2C33.5637 6.2 33.3057 6.116 33.1137 5.948C32.9337 5.768 32.8437 5.534 32.8437 5.246C32.8437 4.934 32.9337 4.7 33.1137 4.544C33.3057 4.376 33.5637 4.292 33.8877 4.292C34.2357 4.292 34.4937 4.376 34.6617 4.544C34.8417 4.7 34.9317 4.934 34.9317 5.246C34.9317 5.534 34.8417 5.768 34.6617 5.948C34.4937 6.116 34.2357 6.2 33.8877 6.2ZM38.1952 17.126C37.9192 17.126 37.7092 17.054 37.5652 16.91C37.4212 16.766 37.3492 16.556 37.3492 16.28V8.936C37.3492 8.66 37.4212 8.456 37.5652 8.324C37.7092 8.18 37.9072 8.108 38.1592 8.108C38.4112 8.108 38.6032 8.18 38.7352 8.324C38.8792 8.456 38.9512 8.66 38.9512 8.936V10.322H38.7712C38.9632 9.602 39.3232 9.056 39.8512 8.684C40.3792 8.312 41.0452 8.102 41.8492 8.054C42.0412 8.042 42.1972 8.09 42.3172 8.198C42.4372 8.294 42.5032 8.462 42.5152 8.702C42.5272 8.93 42.4732 9.116 42.3532 9.26C42.2332 9.392 42.0472 9.47 41.7952 9.494L41.4712 9.512C40.6792 9.596 40.0672 9.854 39.6352 10.286C39.2152 10.718 39.0052 11.312 39.0052 12.068V16.28C39.0052 16.556 38.9332 16.766 38.7892 16.91C38.6572 17.054 38.4592 17.126 38.1952 17.126ZM47.8503 17.162C46.9023 17.162 46.0863 16.982 45.4023 16.622C44.7303 16.25 44.2083 15.728 43.8363 15.056C43.4643 14.372 43.2783 13.568 43.2783 12.644C43.2783 11.732 43.4583 10.934 43.8183 10.25C44.1903 9.566 44.6943 9.032 45.3303 8.648C45.9783 8.264 46.7163 8.072 47.5443 8.072C48.1323 8.072 48.6603 8.174 49.1283 8.378C49.6083 8.57 50.0163 8.852 50.3523 9.224C50.6883 9.596 50.9403 10.052 51.1083 10.592C51.2883 11.12 51.3783 11.72 51.3783 12.392C51.3783 12.584 51.3183 12.734 51.1983 12.842C51.0903 12.938 50.9283 12.986 50.7123 12.986H44.5563V11.942H50.2983L49.9923 12.194C49.9923 11.57 49.8963 11.042 49.7043 10.61C49.5243 10.166 49.2543 9.83 48.8943 9.602C48.5463 9.374 48.1083 9.26 47.5803 9.26C47.0043 9.26 46.5123 9.398 46.1043 9.674C45.6963 9.938 45.3843 10.316 45.1683 10.808C44.9523 11.288 44.8443 11.846 44.8443 12.482V12.59C44.8443 13.67 45.1023 14.486 45.6183 15.038C46.1343 15.59 46.8783 15.866 47.8503 15.866C48.2343 15.866 48.6243 15.818 49.0203 15.722C49.4283 15.626 49.8183 15.452 50.1903 15.2C50.3703 15.092 50.5323 15.044 50.6763 15.056C50.8323 15.056 50.9583 15.104 51.0543 15.2C51.1503 15.284 51.2103 15.392 51.2343 15.524C51.2583 15.644 51.2403 15.776 51.1803 15.92C51.1203 16.064 51.0063 16.19 50.8383 16.298C50.4423 16.574 49.9683 16.79 49.4163 16.946C48.8763 17.09 48.3543 17.162 47.8503 17.162ZM56.7636 17.162C55.9956 17.162 55.3176 16.982 54.7296 16.622C54.1536 16.25 53.7036 15.722 53.3796 15.038C53.0556 14.342 52.8936 13.532 52.8936 12.608C52.8936 11.672 53.0496 10.868 53.3616 10.196C53.6856 9.512 54.1356 8.99 54.7116 8.63C55.2996 8.258 55.9836 8.072 56.7636 8.072C57.5436 8.072 58.2156 8.27 58.7796 8.666C59.3436 9.05 59.7216 9.566 59.9136 10.214H59.7156V5.012C59.7156 4.736 59.7816 4.532 59.9136 4.4C60.0576 4.256 60.2616 4.184 60.5256 4.184C60.7896 4.184 60.9936 4.256 61.1376 4.4C61.2816 4.532 61.3536 4.736 61.3536 5.012V16.28C61.3536 16.556 61.2816 16.766 61.1376 16.91C60.9936 17.054 60.7896 17.126 60.5256 17.126C60.2736 17.126 60.0756 17.054 59.9316 16.91C59.7876 16.766 59.7156 16.556 59.7156 16.28V14.642L59.9136 14.966C59.7336 15.638 59.3556 16.172 58.7796 16.568C58.2156 16.964 57.5436 17.162 56.7636 17.162ZM57.1416 15.866C57.6696 15.866 58.1256 15.74 58.5096 15.488C58.9056 15.236 59.2056 14.87 59.4096 14.39C59.6256 13.91 59.7336 13.316 59.7336 12.608C59.7336 11.552 59.4996 10.748 59.0316 10.196C58.5636 9.644 57.9336 9.368 57.1416 9.368C56.6256 9.368 56.1696 9.494 55.7736 9.746C55.3896 9.986 55.0896 10.346 54.8736 10.826C54.6576 11.306 54.5496 11.9 54.5496 12.608C54.5496 13.664 54.7836 14.474 55.2516 15.038C55.7316 15.59 56.3616 15.866 57.1416 15.866ZM74.4694 17.162C73.2094 17.162 72.1294 16.898 71.2294 16.37C70.3294 15.842 69.6334 15.092 69.1414 14.12C68.6614 13.136 68.4214 11.978 68.4214 10.646C68.4214 9.65 68.5594 8.756 68.8354 7.964C69.1114 7.16 69.5074 6.476 70.0234 5.912C70.5394 5.336 71.1694 4.898 71.9134 4.598C72.6694 4.298 73.5214 4.148 74.4694 4.148C75.1894 4.148 75.8794 4.25 76.5394 4.454C77.2114 4.658 77.7874 4.946 78.2674 5.318C78.4594 5.45 78.5854 5.6 78.6454 5.768C78.7054 5.936 78.7114 6.098 78.6634 6.254C78.6274 6.398 78.5494 6.524 78.4294 6.632C78.3214 6.728 78.1834 6.782 78.0154 6.794C77.8474 6.794 77.6674 6.728 77.4754 6.596C77.0554 6.272 76.5934 6.038 76.0894 5.894C75.5974 5.738 75.0694 5.66 74.5054 5.66C73.5814 5.66 72.7954 5.858 72.1474 6.254C71.5114 6.638 71.0254 7.202 70.6894 7.946C70.3654 8.678 70.2034 9.578 70.2034 10.646C70.2034 11.702 70.3654 12.608 70.6894 13.364C71.0254 14.108 71.5114 14.678 72.1474 15.074C72.7954 15.458 73.5814 15.65 74.5054 15.65C75.0694 15.65 75.6034 15.572 76.1074 15.416C76.6234 15.26 77.0974 15.02 77.5294 14.696C77.7214 14.564 77.8954 14.504 78.0514 14.516C78.2194 14.528 78.3574 14.582 78.4654 14.678C78.5734 14.762 78.6454 14.882 78.6814 15.038C78.7294 15.182 78.7294 15.332 78.6814 15.488C78.6334 15.644 78.5254 15.782 78.3574 15.902C77.8654 16.322 77.2774 16.64 76.5934 16.856C75.9214 17.06 75.2134 17.162 74.4694 17.162ZM83.913 17.162C83.049 17.162 82.299 16.976 81.663 16.604C81.027 16.232 80.535 15.704 80.187 15.02C79.839 14.336 79.665 13.532 79.665 12.608C79.665 11.912 79.761 11.288 79.953 10.736C80.157 10.172 80.445 9.692 80.817 9.296C81.189 8.9 81.633 8.6 82.149 8.396C82.677 8.18 83.265 8.072 83.913 8.072C84.777 8.072 85.527 8.258 86.163 8.63C86.799 9.002 87.291 9.53 87.639 10.214C87.987 10.886 88.161 11.684 88.161 12.608C88.161 13.304 88.059 13.934 87.855 14.498C87.663 15.062 87.381 15.542 87.009 15.938C86.637 16.334 86.187 16.64 85.659 16.856C85.143 17.06 84.561 17.162 83.913 17.162ZM83.913 15.866C84.441 15.866 84.897 15.74 85.281 15.488C85.677 15.236 85.977 14.87 86.181 14.39C86.397 13.91 86.505 13.316 86.505 12.608C86.505 11.552 86.271 10.748 85.803 10.196C85.335 9.644 84.705 9.368 83.913 9.368C83.397 9.368 82.941 9.494 82.545 9.746C82.161 9.986 81.861 10.346 81.645 10.826C81.429 11.306 81.321 11.9 81.321 12.608C81.321 13.664 81.555 14.474 82.023 15.038C82.503 15.59 83.133 15.866 83.913 15.866ZM93.0133 17.162C92.1133 17.162 91.4293 16.898 90.9613 16.37C90.4933 15.83 90.2593 15.056 90.2593 14.048V5.012C90.2593 4.736 90.3313 4.532 90.4753 4.4C90.6193 4.256 90.8173 4.184 91.0693 4.184C91.3333 4.184 91.5373 4.256 91.6813 4.4C91.8253 4.532 91.8973 4.736 91.8973 5.012V13.922C91.8973 14.546 92.0233 15.014 92.2753 15.326C92.5393 15.626 92.9113 15.776 93.3913 15.776C93.4993 15.776 93.5953 15.776 93.6793 15.776C93.7633 15.764 93.8473 15.752 93.9313 15.74C94.0633 15.728 94.1593 15.764 94.2193 15.848C94.2793 15.932 94.3093 16.1 94.3093 16.352C94.3093 16.58 94.2553 16.76 94.1473 16.892C94.0513 17.012 93.8893 17.09 93.6613 17.126C93.5533 17.138 93.4453 17.144 93.3373 17.144C93.2293 17.156 93.1213 17.162 93.0133 17.162ZM99.3115 17.162C98.4475 17.162 97.6975 16.976 97.0615 16.604C96.4255 16.232 95.9335 15.704 95.5855 15.02C95.2375 14.336 95.0635 13.532 95.0635 12.608C95.0635 11.912 95.1595 11.288 95.3515 10.736C95.5555 10.172 95.8435 9.692 96.2155 9.296C96.5875 8.9 97.0315 8.6 97.5475 8.396C98.0755 8.18 98.6635 8.072 99.3115 8.072C100.175 8.072 100.925 8.258 101.561 8.63C102.197 9.002 102.689 9.53 103.037 10.214C103.385 10.886 103.559 11.684 103.559 12.608C103.559 13.304 103.457 13.934 103.253 14.498C103.061 15.062 102.779 15.542 102.407 15.938C102.035 16.334 101.585 16.64 101.057 16.856C100.541 17.06 99.9595 17.162 99.3115 17.162ZM99.3115 15.866C99.8395 15.866 100.295 15.74 100.679 15.488C101.075 15.236 101.375 14.87 101.579 14.39C101.795 13.91 101.903 13.316 101.903 12.608C101.903 11.552 101.669 10.748 101.201 10.196C100.733 9.644 100.103 9.368 99.3115 9.368C98.7955 9.368 98.3395 9.494 97.9435 9.746C97.5595 9.986 97.2595 10.346 97.0435 10.826C96.8275 11.306 96.7195 11.9 96.7195 12.608C96.7195 13.664 96.9535 14.474 97.4215 15.038C97.9015 15.59 98.5315 15.866 99.3115 15.866ZM106.504 17.126C106.228 17.126 106.018 17.054 105.874 16.91C105.73 16.766 105.658 16.556 105.658 16.28V8.936C105.658 8.66 105.73 8.456 105.874 8.324C106.018 8.18 106.216 8.108 106.468 8.108C106.72 8.108 106.912 8.18 107.044 8.324C107.188 8.456 107.26 8.66 107.26 8.936V10.322H107.08C107.272 9.602 107.632 9.056 108.16 8.684C108.688 8.312 109.354 8.102 110.158 8.054C110.35 8.042 110.506 8.09 110.626 8.198C110.746 8.294 110.812 8.462 110.824 8.702C110.836 8.93 110.782 9.116 110.662 9.26C110.542 9.392 110.356 9.47 110.104 9.494L109.78 9.512C108.988 9.596 108.376 9.854 107.944 10.286C107.524 10.718 107.314 11.312 107.314 12.068V16.28C107.314 16.556 107.242 16.766 107.098 16.91C106.966 17.054 106.768 17.126 106.504 17.126Z" fill="#F9FAFE"/>
    <rect y="42" width="30" height="30" rx="5" fill="#212121"/>
    <rect x="50" y="42" width="30" height="30" rx="5" fill="#90542F"/>
    <rect x="100" y="42" width="30" height="30" rx="5" fill="#FF0000"/>
    <rect x="150" y="42" width="30" height="30" rx="5" fill="#FBE7A1"/>
    <rect x="200" y="42" width="30" height="30" rx="5" fill="#B2BEB5"/>
</svg>
