<svg width="230" height="112" viewBox="0 0 230 112" fill="none" xmlns="http://www.w3.org/2000/svg">
    <path d="M60.9047 88.108C59.9367 88.108 59.2007 87.736 58.6967 86.992C58.1927 86.248 57.9407 85.172 57.9407 83.764C57.9407 82.82 58.0527 82.028 58.2767 81.388C58.5007 80.74 58.8327 80.252 59.2727 79.924C59.7207 79.596 60.2647 79.432 60.9047 79.432C61.8807 79.432 62.6167 79.8 63.1127 80.536C63.6167 81.264 63.8687 82.336 63.8687 83.752C63.8687 84.696 63.7567 85.492 63.5327 86.14C63.3087 86.788 62.9767 87.28 62.5367 87.616C62.0967 87.944 61.5527 88.108 60.9047 88.108ZM60.9047 87.256C61.5767 87.256 62.0727 86.972 62.3927 86.404C62.7207 85.828 62.8847 84.944 62.8847 83.752C62.8847 82.552 62.7207 81.676 62.3927 81.124C62.0727 80.564 61.5767 80.284 60.9047 80.284C60.2407 80.284 59.7447 80.564 59.4167 81.124C59.0887 81.684 58.9247 82.56 58.9247 83.752C58.9247 84.944 59.0887 85.828 59.4167 86.404C59.7447 86.972 60.2407 87.256 60.9047 87.256ZM66.516 88.084C66.404 88.084 66.308 88.056 66.228 88C66.148 87.944 66.096 87.868 66.072 87.772C66.056 87.668 66.08 87.556 66.144 87.436L69.996 79.96V80.392H65.676C65.532 80.392 65.42 80.356 65.34 80.284C65.26 80.204 65.22 80.096 65.22 79.96C65.22 79.824 65.26 79.72 65.34 79.648C65.42 79.576 65.532 79.54 65.676 79.54H70.44C70.584 79.54 70.7 79.576 70.788 79.648C70.876 79.72 70.92 79.824 70.92 79.96C70.92 80.072 70.904 80.172 70.872 80.26C70.848 80.34 70.812 80.432 70.764 80.536L67.068 87.748C67.012 87.86 66.94 87.944 66.852 88C66.764 88.056 66.652 88.084 66.516 88.084Z" fill="#F9FAFE"/>
    <path d="M26.7746 108C26.6146 108 26.4906 107.956 26.4026 107.868C26.3146 107.772 26.2706 107.644 26.2706 107.484V99.996C26.2706 99.828 26.3106 99.7 26.3906 99.612C26.4786 99.524 26.6026 99.48 26.7626 99.48C26.9226 99.48 27.0426 99.524 27.1226 99.612C27.2106 99.7 27.2546 99.828 27.2546 99.996V107.136H31.1906C31.3346 107.136 31.4466 107.176 31.5266 107.256C31.6066 107.328 31.6466 107.432 31.6466 107.568C31.6466 107.704 31.6066 107.812 31.5266 107.892C31.4466 107.964 31.3346 108 31.1906 108H26.7746ZM33.1342 108.06C32.9742 108.06 32.8542 108.016 32.7742 107.928C32.6942 107.832 32.6542 107.7 32.6542 107.532V102.624C32.6542 102.456 32.6942 102.328 32.7742 102.24C32.8542 102.152 32.9742 102.108 33.1342 102.108C33.2862 102.108 33.4062 102.152 33.4942 102.24C33.5822 102.328 33.6262 102.456 33.6262 102.624V107.532C33.6262 107.7 33.5822 107.832 33.4942 107.928C33.4142 108.016 33.2942 108.06 33.1342 108.06ZM33.1342 100.764C32.9342 100.764 32.7782 100.712 32.6662 100.608C32.5542 100.496 32.4982 100.348 32.4982 100.164C32.4982 99.972 32.5542 99.828 32.6662 99.732C32.7782 99.628 32.9342 99.576 33.1342 99.576C33.3422 99.576 33.4982 99.628 33.6022 99.732C33.7142 99.828 33.7702 99.972 33.7702 100.164C33.7702 100.348 33.7142 100.496 33.6022 100.608C33.4982 100.712 33.3422 100.764 33.1342 100.764ZM38.0233 110.268C37.5993 110.268 37.1833 110.216 36.7753 110.112C36.3753 110.016 36.0113 109.86 35.6833 109.644C35.5873 109.588 35.5233 109.52 35.4913 109.44C35.4673 109.36 35.4633 109.28 35.4793 109.2C35.4953 109.128 35.5313 109.06 35.5873 108.996C35.6433 108.94 35.7073 108.904 35.7793 108.888C35.8593 108.872 35.9393 108.884 36.0193 108.924C36.3713 109.14 36.7073 109.288 37.0273 109.368C37.3473 109.448 37.6633 109.488 37.9753 109.488C38.5433 109.488 38.9713 109.336 39.2593 109.032C39.5553 108.728 39.7033 108.288 39.7033 107.712V106.356H39.8233C39.7033 106.82 39.4473 107.188 39.0553 107.46C38.6713 107.732 38.2193 107.868 37.6992 107.868C37.1633 107.868 36.6993 107.748 36.3073 107.508C35.9153 107.26 35.6113 106.916 35.3953 106.476C35.1873 106.036 35.0833 105.528 35.0833 104.952C35.0833 104.52 35.1433 104.128 35.2633 103.776C35.3833 103.416 35.5553 103.112 35.7793 102.864C36.0113 102.608 36.2873 102.412 36.6073 102.276C36.9353 102.132 37.2993 102.06 37.6992 102.06C38.2273 102.06 38.6833 102.196 39.0673 102.468C39.4513 102.732 39.6993 103.092 39.8113 103.548L39.6913 103.692V102.576C39.6913 102.416 39.7313 102.296 39.8113 102.216C39.8993 102.128 40.0193 102.084 40.1713 102.084C40.3313 102.084 40.4513 102.128 40.5312 102.216C40.6113 102.296 40.6513 102.416 40.6513 102.576V107.58C40.6513 108.468 40.4273 109.136 39.9793 109.584C39.5393 110.04 38.8873 110.268 38.0233 110.268ZM37.8793 107.076C38.2553 107.076 38.5793 106.992 38.8513 106.824C39.1233 106.648 39.3313 106.4 39.4753 106.08C39.6273 105.76 39.7033 105.384 39.7033 104.952C39.7033 104.304 39.5393 103.792 39.2113 103.416C38.8833 103.032 38.4393 102.84 37.8793 102.84C37.5113 102.84 37.1913 102.928 36.9193 103.104C36.6473 103.272 36.4353 103.516 36.2833 103.836C36.1393 104.148 36.0673 104.52 36.0673 104.952C36.0673 105.6 36.2313 106.116 36.5593 106.5C36.8873 106.884 37.3273 107.076 37.8793 107.076ZM42.9545 108.084C42.7945 108.084 42.6745 108.04 42.5945 107.952C42.5145 107.864 42.4745 107.74 42.4745 107.58V99.948C42.4745 99.788 42.5145 99.668 42.5945 99.588C42.6745 99.5 42.7945 99.456 42.9545 99.456C43.1065 99.456 43.2265 99.5 43.3145 99.588C43.4025 99.668 43.4465 99.788 43.4465 99.948V103.464H43.2905C43.4585 103 43.7305 102.652 44.1065 102.42C44.4905 102.18 44.9305 102.06 45.4265 102.06C45.8905 102.06 46.2745 102.144 46.5785 102.312C46.8905 102.48 47.1225 102.736 47.2745 103.08C47.4265 103.416 47.5025 103.844 47.5025 104.364V107.58C47.5025 107.74 47.4585 107.864 47.3705 107.952C47.2905 108.04 47.1745 108.084 47.0225 108.084C46.8625 108.084 46.7385 108.04 46.6505 107.952C46.5705 107.864 46.5305 107.74 46.5305 107.58V104.424C46.5305 103.88 46.4225 103.484 46.2065 103.236C45.9985 102.98 45.6625 102.852 45.1985 102.852C44.6625 102.852 44.2345 103.02 43.9145 103.356C43.6025 103.684 43.4465 104.124 43.4465 104.676V107.58C43.4465 107.916 43.2825 108.084 42.9545 108.084ZM51.6348 108.108C51.1788 108.108 50.7948 108.028 50.4828 107.868C50.1788 107.7 49.9508 107.46 49.7988 107.148C49.6468 106.828 49.5708 106.44 49.5708 105.984V102.924H48.7668C48.6308 102.924 48.5268 102.892 48.4548 102.828C48.3828 102.756 48.3468 102.66 48.3468 102.54C48.3468 102.42 48.3828 102.328 48.4548 102.264C48.5268 102.2 48.6308 102.168 48.7668 102.168H49.5708V100.788C49.5708 100.628 49.6148 100.508 49.7028 100.428C49.7908 100.34 49.9108 100.296 50.0628 100.296C50.2148 100.296 50.3308 100.34 50.4108 100.428C50.4988 100.508 50.5428 100.628 50.5428 100.788V102.168H52.0548C52.1908 102.168 52.2948 102.2 52.3668 102.264C52.4388 102.328 52.4748 102.42 52.4748 102.54C52.4748 102.66 52.4388 102.756 52.3668 102.828C52.2948 102.892 52.1908 102.924 52.0548 102.924H50.5428V105.888C50.5428 106.344 50.6388 106.692 50.8308 106.932C51.0228 107.164 51.3348 107.28 51.7668 107.28C51.9188 107.28 52.0468 107.264 52.1508 107.232C52.2628 107.2 52.3548 107.184 52.4268 107.184C52.4988 107.176 52.5588 107.2 52.6068 107.256C52.6548 107.312 52.6788 107.408 52.6788 107.544C52.6788 107.64 52.6588 107.728 52.6188 107.808C52.5868 107.888 52.5268 107.944 52.4388 107.976C52.3428 108.008 52.2148 108.036 52.0548 108.06C51.9028 108.092 51.7628 108.108 51.6348 108.108ZM56.0595 108.108C55.4435 108.108 54.9115 107.988 54.4635 107.748C54.0235 107.5 53.6795 107.152 53.4315 106.704C53.1915 106.256 53.0715 105.72 53.0715 105.096C53.0715 104.488 53.1915 103.96 53.4315 103.512C53.6715 103.056 53.9995 102.7 54.4155 102.444C54.8395 102.188 55.3275 102.06 55.8795 102.06C56.2715 102.06 56.6235 102.128 56.9355 102.264C57.2475 102.392 57.5115 102.58 57.7275 102.828C57.9515 103.076 58.1195 103.376 58.2315 103.728C58.3515 104.08 58.4115 104.476 58.4115 104.916C58.4115 105.044 58.3755 105.14 58.3035 105.204C58.2315 105.26 58.1275 105.288 57.9915 105.288H53.8155V104.652H57.7635L57.5715 104.808C57.5715 104.376 57.5075 104.012 57.3795 103.716C57.2515 103.412 57.0635 103.18 56.8155 103.02C56.5755 102.86 56.2715 102.78 55.9035 102.78C55.4955 102.78 55.1475 102.876 54.8595 103.068C54.5795 103.252 54.3675 103.512 54.2235 103.848C54.0795 104.176 54.0075 104.56 54.0075 105V105.072C54.0075 105.808 54.1835 106.368 54.5355 106.752C54.8955 107.136 55.4035 107.328 56.0595 107.328C56.3315 107.328 56.5995 107.292 56.8635 107.22C57.1355 107.148 57.3995 107.028 57.6555 106.86C57.7675 106.788 57.8675 106.756 57.9555 106.764C58.0515 106.764 58.1275 106.792 58.1835 106.848C58.2395 106.896 58.2755 106.96 58.2915 107.04C58.3155 107.112 58.3075 107.192 58.2675 107.28C58.2355 107.368 58.1675 107.444 58.0635 107.508C57.7995 107.7 57.4875 107.848 57.1275 107.952C56.7675 108.056 56.4115 108.108 56.0595 108.108ZM60.3103 108.084C60.1503 108.084 60.0263 108.04 59.9383 107.952C59.8583 107.864 59.8183 107.74 59.8183 107.58V102.576C59.8183 102.416 59.8583 102.296 59.9383 102.216C60.0183 102.128 60.1343 102.084 60.2863 102.084C60.4383 102.084 60.5543 102.128 60.6343 102.216C60.7223 102.296 60.7663 102.416 60.7663 102.576V103.548H60.6463C60.7743 103.076 61.0183 102.712 61.3783 102.456C61.7383 102.2 62.1823 102.064 62.7103 102.048C62.8303 102.04 62.9263 102.068 62.9983 102.132C63.0703 102.188 63.1103 102.288 63.1183 102.432C63.1263 102.568 63.0943 102.676 63.0223 102.756C62.9503 102.836 62.8383 102.884 62.6863 102.9L62.4943 102.924C61.9503 102.972 61.5303 103.148 61.2343 103.452C60.9463 103.748 60.8023 104.156 60.8023 104.676V107.58C60.8023 107.74 60.7583 107.864 60.6702 107.952C60.5903 108.04 60.4703 108.084 60.3103 108.084ZM67.8848 108C67.7088 108 67.5728 107.956 67.4768 107.868C67.3888 107.772 67.3448 107.636 67.3448 107.46V100.08C67.3448 99.904 67.3888 99.772 67.4768 99.684C67.5728 99.588 67.7088 99.54 67.8848 99.54H70.7288C71.3128 99.54 71.8048 99.628 72.2048 99.804C72.6128 99.972 72.9248 100.22 73.1408 100.548C73.3568 100.876 73.4648 101.276 73.4648 101.748C73.4648 102.276 73.3088 102.716 72.9968 103.068C72.6928 103.42 72.2768 103.652 71.7488 103.764V103.596C72.3488 103.668 72.8168 103.884 73.1528 104.244C73.4968 104.604 73.6688 105.08 73.6688 105.672C73.6688 106.424 73.4248 107 72.9368 107.4C72.4488 107.8 71.7608 108 70.8728 108H67.8848ZM68.3048 107.208H70.7768C71.4168 107.208 71.8968 107.08 72.2168 106.824C72.5368 106.568 72.6968 106.18 72.6968 105.66C72.6968 105.132 72.5368 104.744 72.2168 104.496C71.8968 104.24 71.4168 104.112 70.7768 104.112H68.3048V107.208ZM68.3048 103.32H70.5848C71.2088 103.32 71.6808 103.192 72.0008 102.936C72.3288 102.68 72.4928 102.312 72.4928 101.832C72.4928 101.336 72.3288 100.964 72.0008 100.716C71.6808 100.46 71.2088 100.332 70.5848 100.332H68.3048V103.32ZM77.0982 108.108C76.5222 108.108 76.0822 107.932 75.7782 107.58C75.4742 107.228 75.3222 106.724 75.3222 106.068V99.948C75.3222 99.788 75.3622 99.668 75.4422 99.588C75.5222 99.5 75.6422 99.456 75.8022 99.456C75.9542 99.456 76.0742 99.5 76.1622 99.588C76.2502 99.668 76.2942 99.788 76.2942 99.948V105.996C76.2942 106.428 76.3782 106.752 76.5462 106.968C76.7222 107.176 76.9782 107.28 77.3142 107.28C77.3862 107.28 77.4502 107.276 77.5062 107.268C77.5622 107.26 77.6182 107.256 77.6742 107.256C77.7622 107.248 77.8222 107.268 77.8542 107.316C77.8942 107.364 77.9142 107.46 77.9142 107.604C77.9142 107.748 77.8822 107.856 77.8182 107.928C77.7542 108 77.6502 108.048 77.5062 108.072C77.4422 108.08 77.3742 108.088 77.3022 108.096C77.2302 108.104 77.1622 108.108 77.0982 108.108ZM81.2383 108.108C80.6703 108.108 80.1783 107.984 79.7623 107.736C79.3463 107.488 79.0223 107.14 78.7903 106.692C78.5663 106.236 78.4543 105.7 78.4543 105.084C78.4543 104.62 78.5183 104.204 78.6463 103.836C78.7743 103.46 78.9623 103.14 79.2103 102.876C79.4583 102.612 79.7503 102.412 80.0863 102.276C80.4303 102.132 80.8143 102.06 81.2383 102.06C81.8063 102.06 82.2983 102.184 82.7143 102.432C83.1303 102.68 83.4503 103.032 83.6743 103.488C83.9063 103.936 84.0223 104.468 84.0223 105.084C84.0223 105.548 83.9583 105.964 83.8303 106.332C83.7023 106.7 83.5143 107.02 83.2663 107.292C83.0183 107.556 82.7223 107.76 82.3783 107.904C82.0423 108.04 81.6623 108.108 81.2383 108.108ZM81.2383 107.328C81.5983 107.328 81.9143 107.24 82.1863 107.064C82.4583 106.888 82.6663 106.632 82.8103 106.296C82.9623 105.96 83.0383 105.556 83.0383 105.084C83.0383 104.356 82.8743 103.8 82.5463 103.416C82.2263 103.032 81.7903 102.84 81.2383 102.84C80.8703 102.84 80.5503 102.928 80.2783 103.104C80.0143 103.272 79.8063 103.524 79.6543 103.86C79.5103 104.188 79.4383 104.596 79.4383 105.084C79.4383 105.804 79.6023 106.36 79.9303 106.752C80.2583 107.136 80.6943 107.328 81.2383 107.328ZM85.9623 108.084C85.8023 108.084 85.6823 108.04 85.6023 107.952C85.5223 107.864 85.4823 107.74 85.4823 107.58V102.576C85.4823 102.416 85.5223 102.296 85.6023 102.216C85.6823 102.128 85.7983 102.084 85.9503 102.084C86.1023 102.084 86.2183 102.128 86.2983 102.216C86.3863 102.296 86.4303 102.416 86.4303 102.576V103.608L86.2983 103.464C86.4663 103 86.7383 102.652 87.1143 102.42C87.4983 102.18 87.9383 102.06 88.4343 102.06C88.8983 102.06 89.2823 102.144 89.5863 102.312C89.8983 102.48 90.1303 102.736 90.2823 103.08C90.4343 103.416 90.5103 103.844 90.5103 104.364V107.58C90.5103 107.74 90.4663 107.864 90.3783 107.952C90.2983 108.04 90.1823 108.084 90.0303 108.084C89.8703 108.084 89.7463 108.04 89.6583 107.952C89.5783 107.864 89.5383 107.74 89.5383 107.58V104.424C89.5383 103.88 89.4303 103.484 89.2143 103.236C89.0063 102.98 88.6703 102.852 88.2063 102.852C87.6703 102.852 87.2423 103.02 86.9223 103.356C86.6103 103.684 86.4543 104.124 86.4543 104.676V107.58C86.4543 107.916 86.2903 108.084 85.9623 108.084ZM94.5226 108.108C94.0026 108.108 93.5466 107.984 93.1546 107.736C92.7706 107.488 92.4706 107.14 92.2546 106.692C92.0466 106.236 91.9426 105.7 91.9426 105.084C91.9426 104.46 92.0466 103.924 92.2546 103.476C92.4706 103.02 92.7706 102.672 93.1546 102.432C93.5466 102.184 94.0026 102.06 94.5226 102.06C95.0506 102.06 95.5026 102.192 95.8786 102.456C96.2546 102.72 96.5066 103.076 96.6346 103.524H96.5026V99.948C96.5026 99.788 96.5426 99.668 96.6226 99.588C96.7106 99.5 96.8346 99.456 96.9946 99.456C97.1466 99.456 97.2626 99.5 97.3426 99.588C97.4306 99.668 97.4746 99.788 97.4746 99.948V107.58C97.4746 107.74 97.4346 107.864 97.3546 107.952C97.2746 108.04 97.1546 108.084 96.9946 108.084C96.8426 108.084 96.7226 108.04 96.6346 107.952C96.5546 107.864 96.5146 107.74 96.5146 107.58V106.44L96.6466 106.608C96.5186 107.064 96.2626 107.428 95.8786 107.7C95.5026 107.972 95.0506 108.108 94.5226 108.108ZM94.7266 107.328C95.0866 107.328 95.4026 107.24 95.6746 107.064C95.9466 106.888 96.1546 106.632 96.2986 106.296C96.4506 105.96 96.5266 105.556 96.5266 105.084C96.5266 104.356 96.3626 103.8 96.0346 103.416C95.7146 103.032 95.2786 102.84 94.7266 102.84C94.3586 102.84 94.0386 102.928 93.7666 103.104C93.5026 103.272 93.2946 103.524 93.1426 103.86C92.9986 104.188 92.9266 104.596 92.9266 105.084C92.9266 105.804 93.0906 106.36 93.4186 106.752C93.7466 107.136 94.1826 107.328 94.7266 107.328ZM101.927 108.108C101.311 108.108 100.779 107.988 100.331 107.748C99.8907 107.5 99.5467 107.152 99.2987 106.704C99.0587 106.256 98.9387 105.72 98.9387 105.096C98.9387 104.488 99.0587 103.96 99.2987 103.512C99.5387 103.056 99.8667 102.7 100.283 102.444C100.707 102.188 101.195 102.06 101.747 102.06C102.139 102.06 102.491 102.128 102.803 102.264C103.115 102.392 103.379 102.58 103.595 102.828C103.819 103.076 103.987 103.376 104.099 103.728C104.219 104.08 104.279 104.476 104.279 104.916C104.279 105.044 104.243 105.14 104.171 105.204C104.099 105.26 103.995 105.288 103.859 105.288H99.6827V104.652H103.631L103.439 104.808C103.439 104.376 103.375 104.012 103.247 103.716C103.119 103.412 102.931 103.18 102.683 103.02C102.443 102.86 102.139 102.78 101.771 102.78C101.363 102.78 101.015 102.876 100.727 103.068C100.447 103.252 100.235 103.512 100.091 103.848C99.9467 104.176 99.8747 104.56 99.8747 105V105.072C99.8747 105.808 100.051 106.368 100.403 106.752C100.763 107.136 101.271 107.328 101.927 107.328C102.199 107.328 102.467 107.292 102.731 107.22C103.003 107.148 103.267 107.028 103.523 106.86C103.635 106.788 103.735 106.756 103.823 106.764C103.919 106.764 103.995 106.792 104.051 106.848C104.107 106.896 104.143 106.96 104.159 107.04C104.183 107.112 104.175 107.192 104.135 107.28C104.103 107.368 104.035 107.444 103.931 107.508C103.667 107.7 103.355 107.848 102.995 107.952C102.635 108.056 102.279 108.108 101.927 108.108Z" fill="#F9FAFE"/>
    <path d="M2.304 17.126C2.064 17.126 1.872 17.054 1.728 16.91C1.596 16.766 1.53 16.568 1.53 16.316V5.03C1.53 4.754 1.596 4.544 1.728 4.4C1.86 4.256 2.034 4.184 2.25 4.184C2.454 4.184 2.61 4.22 2.718 4.292C2.826 4.364 2.946 4.49 3.078 4.67L10.71 14.786H10.26V4.994C10.26 4.73 10.326 4.532 10.458 4.4C10.602 4.256 10.8 4.184 11.052 4.184C11.304 4.184 11.496 4.256 11.628 4.4C11.76 4.532 11.826 4.73 11.826 4.994V16.316C11.826 16.568 11.76 16.766 11.628 16.91C11.508 17.054 11.346 17.126 11.142 17.126C10.95 17.126 10.788 17.084 10.656 17C10.536 16.928 10.41 16.802 10.278 16.622L2.664 6.506H3.078V16.316C3.078 16.568 3.012 16.766 2.88 16.91C2.748 17.054 2.556 17.126 2.304 17.126ZM17.4458 17.162C16.8458 17.162 16.2998 17.042 15.8078 16.802C15.3278 16.562 14.9498 16.238 14.6738 15.83C14.4098 15.422 14.2778 14.966 14.2778 14.462C14.2778 13.814 14.4398 13.304 14.7638 12.932C15.0878 12.56 15.6338 12.296 16.4018 12.14C17.1698 11.972 18.2018 11.888 19.4978 11.888H20.3438V12.932H19.5338C18.6098 12.932 17.8778 12.974 17.3378 13.058C16.8098 13.142 16.4378 13.292 16.2218 13.508C16.0058 13.712 15.8978 14 15.8978 14.372C15.8978 14.84 16.0598 15.224 16.3838 15.524C16.7198 15.824 17.1758 15.974 17.7518 15.974C18.2078 15.974 18.6098 15.866 18.9578 15.65C19.3058 15.422 19.5818 15.122 19.7858 14.75C19.9898 14.366 20.0918 13.928 20.0918 13.436V11.366C20.0918 10.658 19.9478 10.148 19.6598 9.836C19.3718 9.512 18.8858 9.35 18.2018 9.35C17.8058 9.35 17.3978 9.404 16.9778 9.512C16.5578 9.62 16.1198 9.788 15.6638 10.016C15.4838 10.1 15.3278 10.13 15.1958 10.106C15.0638 10.07 14.9558 9.998 14.8718 9.89C14.7998 9.77 14.7578 9.644 14.7458 9.512C14.7458 9.368 14.7758 9.23 14.8358 9.098C14.9078 8.966 15.0278 8.87 15.1958 8.81C15.7238 8.546 16.2458 8.36 16.7618 8.252C17.2898 8.132 17.7818 8.072 18.2378 8.072C19.0178 8.072 19.6598 8.198 20.1638 8.45C20.6678 8.69 21.0458 9.068 21.2978 9.584C21.5498 10.088 21.6758 10.736 21.6758 11.528V16.28C21.6758 16.556 21.6098 16.766 21.4778 16.91C21.3458 17.054 21.1538 17.126 20.9018 17.126C20.6618 17.126 20.4698 17.054 20.3258 16.91C20.1938 16.766 20.1278 16.556 20.1278 16.28V15.002H20.2898C20.1938 15.446 20.0138 15.83 19.7498 16.154C19.4858 16.478 19.1558 16.73 18.7598 16.91C18.3758 17.078 17.9378 17.162 17.4458 17.162ZM27.8895 17.162C27.1815 17.162 26.5875 17.036 26.1075 16.784C25.6395 16.532 25.2855 16.166 25.0455 15.686C24.8175 15.206 24.7035 14.618 24.7035 13.922V9.494H23.5515C23.3355 9.494 23.1675 9.44 23.0475 9.332C22.9275 9.212 22.8675 9.056 22.8675 8.864C22.8675 8.66 22.9275 8.504 23.0475 8.396C23.1675 8.288 23.3355 8.234 23.5515 8.234H24.7035V6.272C24.7035 5.996 24.7755 5.792 24.9195 5.66C25.0635 5.516 25.2675 5.444 25.5315 5.444C25.7955 5.444 25.9935 5.516 26.1255 5.66C26.2695 5.792 26.3415 5.996 26.3415 6.272V8.234H28.5195C28.7475 8.234 28.9215 8.288 29.0415 8.396C29.1615 8.504 29.2215 8.66 29.2215 8.864C29.2215 9.056 29.1615 9.212 29.0415 9.332C28.9215 9.44 28.7475 9.494 28.5195 9.494H26.3415V13.778C26.3415 14.438 26.4795 14.936 26.7555 15.272C27.0315 15.608 27.4875 15.776 28.1235 15.776C28.3515 15.776 28.5435 15.758 28.6995 15.722C28.8555 15.674 28.9935 15.65 29.1135 15.65C29.2215 15.638 29.3115 15.674 29.3835 15.758C29.4675 15.842 29.5095 15.998 29.5095 16.226C29.5095 16.394 29.4795 16.55 29.4195 16.694C29.3715 16.826 29.2695 16.916 29.1135 16.964C28.9695 17.012 28.7775 17.054 28.5375 17.09C28.2975 17.138 28.0815 17.162 27.8895 17.162ZM33.8366 17.162C33.1286 17.162 32.5346 17.03 32.0546 16.766C31.5866 16.502 31.2386 16.112 31.0106 15.596C30.7826 15.08 30.6686 14.432 30.6686 13.652V8.936C30.6686 8.66 30.7346 8.456 30.8666 8.324C31.0106 8.18 31.2146 8.108 31.4786 8.108C31.7426 8.108 31.9466 8.18 32.0906 8.324C32.2346 8.456 32.3066 8.66 32.3066 8.936V13.652C32.3066 14.396 32.4566 14.948 32.7566 15.308C33.0566 15.656 33.5306 15.83 34.1786 15.83C34.8986 15.83 35.4806 15.59 35.9246 15.11C36.3806 14.63 36.6086 13.994 36.6086 13.202V8.936C36.6086 8.66 36.6746 8.456 36.8066 8.324C36.9506 8.18 37.1546 8.108 37.4186 8.108C37.6826 8.108 37.8866 8.18 38.0306 8.324C38.1746 8.456 38.2466 8.66 38.2466 8.936V16.28C38.2466 16.844 37.9826 17.126 37.4546 17.126C37.1906 17.126 36.9866 17.054 36.8426 16.91C36.7106 16.766 36.6446 16.556 36.6446 16.28V14.714L36.8786 15.02C36.6386 15.716 36.2486 16.25 35.7086 16.622C35.1806 16.982 34.5566 17.162 33.8366 17.162ZM41.7284 17.126C41.4524 17.126 41.2424 17.054 41.0984 16.91C40.9544 16.766 40.8824 16.556 40.8824 16.28V8.936C40.8824 8.66 40.9544 8.456 41.0984 8.324C41.2424 8.18 41.4404 8.108 41.6924 8.108C41.9444 8.108 42.1364 8.18 42.2684 8.324C42.4124 8.456 42.4844 8.66 42.4844 8.936V10.322H42.3044C42.4964 9.602 42.8564 9.056 43.3844 8.684C43.9124 8.312 44.5784 8.102 45.3824 8.054C45.5744 8.042 45.7304 8.09 45.8504 8.198C45.9704 8.294 46.0364 8.462 46.0484 8.702C46.0604 8.93 46.0064 9.116 45.8864 9.26C45.7664 9.392 45.5804 9.47 45.3284 9.494L45.0044 9.512C44.2124 9.596 43.6004 9.854 43.1684 10.286C42.7484 10.718 42.5384 11.312 42.5384 12.068V16.28C42.5384 16.556 42.4664 16.766 42.3224 16.91C42.1904 17.054 41.9924 17.126 41.7284 17.126ZM50.1587 17.162C49.5587 17.162 49.0127 17.042 48.5207 16.802C48.0407 16.562 47.6627 16.238 47.3867 15.83C47.1227 15.422 46.9907 14.966 46.9907 14.462C46.9907 13.814 47.1527 13.304 47.4767 12.932C47.8007 12.56 48.3467 12.296 49.1147 12.14C49.8827 11.972 50.9147 11.888 52.2107 11.888H53.0567V12.932H52.2467C51.3227 12.932 50.5907 12.974 50.0507 13.058C49.5227 13.142 49.1507 13.292 48.9347 13.508C48.7187 13.712 48.6107 14 48.6107 14.372C48.6107 14.84 48.7727 15.224 49.0967 15.524C49.4327 15.824 49.8887 15.974 50.4647 15.974C50.9207 15.974 51.3227 15.866 51.6707 15.65C52.0187 15.422 52.2947 15.122 52.4987 14.75C52.7027 14.366 52.8047 13.928 52.8047 13.436V11.366C52.8047 10.658 52.6607 10.148 52.3727 9.836C52.0847 9.512 51.5987 9.35 50.9147 9.35C50.5187 9.35 50.1107 9.404 49.6907 9.512C49.2707 9.62 48.8327 9.788 48.3767 10.016C48.1967 10.1 48.0407 10.13 47.9087 10.106C47.7767 10.07 47.6687 9.998 47.5847 9.89C47.5127 9.77 47.4707 9.644 47.4587 9.512C47.4587 9.368 47.4887 9.23 47.5487 9.098C47.6207 8.966 47.7407 8.87 47.9087 8.81C48.4367 8.546 48.9587 8.36 49.4747 8.252C50.0027 8.132 50.4947 8.072 50.9507 8.072C51.7307 8.072 52.3727 8.198 52.8767 8.45C53.3807 8.69 53.7587 9.068 54.0107 9.584C54.2627 10.088 54.3887 10.736 54.3887 11.528V16.28C54.3887 16.556 54.3227 16.766 54.1907 16.91C54.0587 17.054 53.8667 17.126 53.6147 17.126C53.3747 17.126 53.1827 17.054 53.0387 16.91C52.9067 16.766 52.8407 16.556 52.8407 16.28V15.002H53.0027C52.9067 15.446 52.7267 15.83 52.4627 16.154C52.1987 16.478 51.8687 16.73 51.4727 16.91C51.0887 17.078 50.6507 17.162 50.1587 17.162ZM59.7203 17.162C58.8203 17.162 58.1363 16.898 57.6683 16.37C57.2003 15.83 56.9663 15.056 56.9663 14.048V5.012C56.9663 4.736 57.0383 4.532 57.1823 4.4C57.3263 4.256 57.5243 4.184 57.7763 4.184C58.0403 4.184 58.2443 4.256 58.3883 4.4C58.5323 4.532 58.6043 4.736 58.6043 5.012V13.922C58.6043 14.546 58.7303 15.014 58.9823 15.326C59.2463 15.626 59.6183 15.776 60.0983 15.776C60.2063 15.776 60.3023 15.776 60.3863 15.776C60.4703 15.764 60.5543 15.752 60.6383 15.74C60.7703 15.728 60.8663 15.764 60.9263 15.848C60.9863 15.932 61.0163 16.1 61.0163 16.352C61.0163 16.58 60.9623 16.76 60.8543 16.892C60.7583 17.012 60.5963 17.09 60.3683 17.126C60.2603 17.138 60.1523 17.144 60.0443 17.144C59.9363 17.156 59.8283 17.162 59.7203 17.162ZM72.8291 17C72.5651 17 72.3551 16.922 72.1991 16.766C72.0551 16.61 71.9831 16.4 71.9831 16.136V5.084C71.9831 4.808 72.0551 4.598 72.1991 4.454C72.3431 4.31 72.5471 4.238 72.8111 4.238C73.0871 4.238 73.2971 4.31 73.4411 4.454C73.5851 4.598 73.6571 4.808 73.6571 5.084V15.56H79.3811C79.6331 15.56 79.8191 15.62 79.9391 15.74C80.0711 15.86 80.1371 16.034 80.1371 16.262C80.1371 16.502 80.0711 16.688 79.9391 16.82C79.8191 16.94 79.6331 17 79.3811 17H72.8291ZM85.5906 17.162C84.6426 17.162 83.8266 16.982 83.1426 16.622C82.4706 16.25 81.9486 15.728 81.5766 15.056C81.2046 14.372 81.0186 13.568 81.0186 12.644C81.0186 11.732 81.1986 10.934 81.5586 10.25C81.9306 9.566 82.4346 9.032 83.0706 8.648C83.7186 8.264 84.4566 8.072 85.2846 8.072C85.8726 8.072 86.4006 8.174 86.8686 8.378C87.3486 8.57 87.7566 8.852 88.0926 9.224C88.4286 9.596 88.6806 10.052 88.8486 10.592C89.0286 11.12 89.1186 11.72 89.1186 12.392C89.1186 12.584 89.0586 12.734 88.9386 12.842C88.8306 12.938 88.6686 12.986 88.4526 12.986H82.2966V11.942H88.0386L87.7326 12.194C87.7326 11.57 87.6366 11.042 87.4446 10.61C87.2646 10.166 86.9946 9.83 86.6346 9.602C86.2866 9.374 85.8486 9.26 85.3206 9.26C84.7446 9.26 84.2526 9.398 83.8446 9.674C83.4366 9.938 83.1246 10.316 82.9086 10.808C82.6926 11.288 82.5846 11.846 82.5846 12.482V12.59C82.5846 13.67 82.8426 14.486 83.3586 15.038C83.8746 15.59 84.6186 15.866 85.5906 15.866C85.9746 15.866 86.3646 15.818 86.7606 15.722C87.1686 15.626 87.5586 15.452 87.9306 15.2C88.1106 15.092 88.2726 15.044 88.4166 15.056C88.5726 15.056 88.6986 15.104 88.7946 15.2C88.8906 15.284 88.9506 15.392 88.9746 15.524C88.9986 15.644 88.9806 15.776 88.9206 15.92C88.8606 16.064 88.7466 16.19 88.5786 16.298C88.1826 16.574 87.7086 16.79 87.1566 16.946C86.6166 17.09 86.0946 17.162 85.5906 17.162ZM94.3628 17.126C94.1348 17.126 93.9368 17.066 93.7688 16.946C93.6008 16.826 93.4568 16.634 93.3368 16.37L90.2768 9.242C90.1928 9.038 90.1628 8.852 90.1868 8.684C90.2108 8.516 90.2888 8.378 90.4208 8.27C90.5648 8.162 90.7568 8.108 90.9968 8.108C91.2008 8.108 91.3628 8.156 91.4828 8.252C91.6028 8.348 91.7168 8.516 91.8248 8.756L94.6508 15.722H94.1468L97.0448 8.756C97.1408 8.516 97.2488 8.348 97.3688 8.252C97.5008 8.156 97.6808 8.108 97.9088 8.108C98.1128 8.108 98.2688 8.162 98.3768 8.27C98.4968 8.378 98.5688 8.516 98.5928 8.684C98.6168 8.852 98.5808 9.032 98.4848 9.224L95.4068 16.37C95.2988 16.634 95.1548 16.826 94.9748 16.946C94.8068 17.066 94.6028 17.126 94.3628 17.126ZM104.259 17.162C103.311 17.162 102.495 16.982 101.811 16.622C101.139 16.25 100.617 15.728 100.245 15.056C99.8725 14.372 99.6865 13.568 99.6865 12.644C99.6865 11.732 99.8665 10.934 100.227 10.25C100.599 9.566 101.103 9.032 101.739 8.648C102.387 8.264 103.125 8.072 103.953 8.072C104.541 8.072 105.069 8.174 105.537 8.378C106.017 8.57 106.425 8.852 106.761 9.224C107.097 9.596 107.349 10.052 107.517 10.592C107.697 11.12 107.787 11.72 107.787 12.392C107.787 12.584 107.727 12.734 107.607 12.842C107.499 12.938 107.337 12.986 107.121 12.986H100.965V11.942H106.707L106.401 12.194C106.401 11.57 106.305 11.042 106.113 10.61C105.933 10.166 105.663 9.83 105.303 9.602C104.955 9.374 104.517 9.26 103.989 9.26C103.413 9.26 102.921 9.398 102.513 9.674C102.105 9.938 101.793 10.316 101.577 10.808C101.361 11.288 101.253 11.846 101.253 12.482V12.59C101.253 13.67 101.511 14.486 102.027 15.038C102.543 15.59 103.287 15.866 104.259 15.866C104.643 15.866 105.033 15.818 105.429 15.722C105.837 15.626 106.227 15.452 106.599 15.2C106.779 15.092 106.941 15.044 107.085 15.056C107.241 15.056 107.367 15.104 107.463 15.2C107.559 15.284 107.619 15.392 107.643 15.524C107.667 15.644 107.649 15.776 107.589 15.92C107.529 16.064 107.415 16.19 107.247 16.298C106.851 16.574 106.377 16.79 105.825 16.946C105.285 17.09 104.763 17.162 104.259 17.162ZM112.578 17.162C111.678 17.162 110.994 16.898 110.526 16.37C110.058 15.83 109.824 15.056 109.824 14.048V5.012C109.824 4.736 109.896 4.532 110.04 4.4C110.184 4.256 110.382 4.184 110.634 4.184C110.898 4.184 111.102 4.256 111.246 4.4C111.39 4.532 111.462 4.736 111.462 5.012V13.922C111.462 14.546 111.588 15.014 111.84 15.326C112.104 15.626 112.476 15.776 112.956 15.776C113.064 15.776 113.16 15.776 113.244 15.776C113.328 15.764 113.412 15.752 113.496 15.74C113.628 15.728 113.724 15.764 113.784 15.848C113.844 15.932 113.874 16.1 113.874 16.352C113.874 16.58 113.82 16.76 113.712 16.892C113.616 17.012 113.454 17.09 113.226 17.126C113.118 17.138 113.01 17.144 112.902 17.144C112.794 17.156 112.686 17.162 112.578 17.162Z" fill="#F9FAFE"/>
    <rect y="40" width="30" height="30" rx="5" fill="#FAF0BE"/>
    <rect x="50" y="40" width="30" height="30" rx="5" fill="#FAF0BE"/>
    <rect x="100" y="40" width="30" height="30" rx="5" fill="#F0E2B6"/>
    <rect x="150" y="40" width="30" height="30" rx="5" fill="#E8D3AF"/>
    <rect x="200" y="40" width="30" height="30" rx="5" fill="#E8D3AF"/>
</svg>
