<svg width="188" height="95" viewBox="0 0 188 95" fill="none" xmlns="http://www.w3.org/2000/svg">
    <path d="M144.848 87C144.643 87 144.484 86.9487 144.372 86.846C144.269 86.734 144.218 86.5753 144.218 86.37V77.76C144.218 77.5547 144.269 77.4007 144.372 77.298C144.484 77.186 144.643 77.13 144.848 77.13H148.166C148.847 77.13 149.421 77.2327 149.888 77.438C150.364 77.634 150.728 77.9233 150.98 78.306C151.232 78.6887 151.358 79.1553 151.358 79.706C151.358 80.322 151.176 80.8353 150.812 81.246C150.457 81.6567 149.972 81.9273 149.356 82.058V81.862C150.056 81.946 150.602 82.198 150.994 82.618C151.395 83.038 151.596 83.5933 151.596 84.284C151.596 85.1613 151.311 85.8333 150.742 86.3C150.173 86.7667 149.37 87 148.334 87H144.848ZM145.338 86.076H148.222C148.969 86.076 149.529 85.9267 149.902 85.628C150.275 85.3293 150.462 84.8767 150.462 84.27C150.462 83.654 150.275 83.2013 149.902 82.912C149.529 82.6133 148.969 82.464 148.222 82.464H145.338V86.076ZM145.338 81.54H147.998C148.726 81.54 149.277 81.3907 149.65 81.092C150.033 80.7933 150.224 80.364 150.224 79.804C150.224 79.2253 150.033 78.7913 149.65 78.502C149.277 78.2033 148.726 78.054 147.998 78.054H145.338V81.54ZM155.597 87.126C154.925 87.126 154.412 86.9207 154.057 86.51C153.702 86.0993 153.525 85.5113 153.525 84.746V77.606C153.525 77.4193 153.572 77.2793 153.665 77.186C153.758 77.0833 153.898 77.032 154.085 77.032C154.262 77.032 154.402 77.0833 154.505 77.186C154.608 77.2793 154.659 77.4193 154.659 77.606V84.662C154.659 85.166 154.757 85.544 154.953 85.796C155.158 86.0387 155.457 86.16 155.849 86.16C155.933 86.16 156.008 86.1553 156.073 86.146C156.138 86.1367 156.204 86.132 156.269 86.132C156.372 86.1227 156.442 86.146 156.479 86.202C156.526 86.258 156.549 86.37 156.549 86.538C156.549 86.706 156.512 86.832 156.437 86.916C156.362 87 156.241 87.056 156.073 87.084C155.998 87.0933 155.919 87.1027 155.835 87.112C155.751 87.1213 155.672 87.126 155.597 87.126ZM160.427 87.126C159.764 87.126 159.19 86.9813 158.705 86.692C158.22 86.4027 157.842 85.9967 157.571 85.474C157.31 84.942 157.179 84.3167 157.179 83.598C157.179 83.0567 157.254 82.5713 157.403 82.142C157.552 81.7033 157.772 81.33 158.061 81.022C158.35 80.714 158.691 80.4807 159.083 80.322C159.484 80.154 159.932 80.07 160.427 80.07C161.09 80.07 161.664 80.2147 162.149 80.504C162.634 80.7933 163.008 81.204 163.269 81.736C163.54 82.2587 163.675 82.8793 163.675 83.598C163.675 84.1393 163.6 84.6247 163.451 85.054C163.302 85.4833 163.082 85.8567 162.793 86.174C162.504 86.482 162.158 86.72 161.757 86.888C161.365 87.0467 160.922 87.126 160.427 87.126ZM160.427 86.216C160.847 86.216 161.216 86.1133 161.533 85.908C161.85 85.7027 162.093 85.404 162.261 85.012C162.438 84.62 162.527 84.1487 162.527 83.598C162.527 82.7487 162.336 82.1 161.953 81.652C161.58 81.204 161.071 80.98 160.427 80.98C159.998 80.98 159.624 81.0827 159.307 81.288C158.999 81.484 158.756 81.778 158.579 82.17C158.411 82.5527 158.327 83.0287 158.327 83.598C158.327 84.438 158.518 85.0867 158.901 85.544C159.284 85.992 159.792 86.216 160.427 86.216ZM165.938 87.098C165.752 87.098 165.612 87.0467 165.518 86.944C165.425 86.8413 165.378 86.6967 165.378 86.51V80.672C165.378 80.4853 165.425 80.3453 165.518 80.252C165.612 80.1493 165.747 80.098 165.924 80.098C166.102 80.098 166.237 80.1493 166.33 80.252C166.433 80.3453 166.484 80.4853 166.484 80.672V81.876L166.33 81.708C166.526 81.1667 166.844 80.7607 167.282 80.49C167.73 80.21 168.244 80.07 168.822 80.07C169.364 80.07 169.812 80.168 170.166 80.364C170.53 80.56 170.801 80.8587 170.978 81.26C171.156 81.652 171.244 82.1513 171.244 82.758V86.51C171.244 86.6967 171.193 86.8413 171.09 86.944C170.997 87.0467 170.862 87.098 170.684 87.098C170.498 87.098 170.353 87.0467 170.25 86.944C170.157 86.8413 170.11 86.6967 170.11 86.51V82.828C170.11 82.1933 169.984 81.7313 169.732 81.442C169.49 81.1433 169.098 80.994 168.556 80.994C167.931 80.994 167.432 81.19 167.058 81.582C166.694 81.9647 166.512 82.478 166.512 83.122V86.51C166.512 86.902 166.321 87.098 165.938 87.098ZM175.925 87.126C175.319 87.126 174.787 86.9813 174.329 86.692C173.881 86.4027 173.531 85.9967 173.279 85.474C173.037 84.942 172.915 84.3167 172.915 83.598C172.915 82.87 173.037 82.2447 173.279 81.722C173.531 81.19 173.881 80.784 174.329 80.504C174.787 80.2147 175.319 80.07 175.925 80.07C176.541 80.07 177.069 80.224 177.507 80.532C177.946 80.84 178.24 81.2553 178.389 81.778H178.235V77.606C178.235 77.4193 178.282 77.2793 178.375 77.186C178.478 77.0833 178.623 77.032 178.809 77.032C178.987 77.032 179.122 77.0833 179.215 77.186C179.318 77.2793 179.369 77.4193 179.369 77.606V86.51C179.369 86.6967 179.323 86.8413 179.229 86.944C179.136 87.0467 178.996 87.098 178.809 87.098C178.632 87.098 178.492 87.0467 178.389 86.944C178.296 86.8413 178.249 86.6967 178.249 86.51V85.18L178.403 85.376C178.254 85.908 177.955 86.3327 177.507 86.65C177.069 86.9673 176.541 87.126 175.925 87.126ZM176.163 86.216C176.583 86.216 176.952 86.1133 177.269 85.908C177.587 85.7027 177.829 85.404 177.997 85.012C178.175 84.62 178.263 84.1487 178.263 83.598C178.263 82.7487 178.072 82.1 177.689 81.652C177.316 81.204 176.807 80.98 176.163 80.98C175.734 80.98 175.361 81.0827 175.043 81.288C174.735 81.484 174.493 81.778 174.315 82.17C174.147 82.5527 174.063 83.0287 174.063 83.598C174.063 84.438 174.255 85.0867 174.637 85.544C175.02 85.992 175.529 86.216 176.163 86.216ZM184.564 87.126C183.845 87.126 183.224 86.986 182.702 86.706C182.188 86.4167 181.787 86.0107 181.498 85.488C181.218 84.9653 181.078 84.34 181.078 83.612C181.078 82.9027 181.218 82.2867 181.498 81.764C181.778 81.232 182.16 80.8167 182.646 80.518C183.14 80.2193 183.71 80.07 184.354 80.07C184.811 80.07 185.222 80.1493 185.586 80.308C185.95 80.4573 186.258 80.6767 186.51 80.966C186.771 81.2553 186.967 81.6053 187.098 82.016C187.238 82.4267 187.308 82.8887 187.308 83.402C187.308 83.5513 187.266 83.6633 187.182 83.738C187.098 83.8033 186.976 83.836 186.818 83.836H181.946V83.094H186.552L186.328 83.276C186.328 82.772 186.253 82.3473 186.104 82.002C185.954 81.6473 185.735 81.3767 185.446 81.19C185.166 81.0033 184.811 80.91 184.382 80.91C183.906 80.91 183.5 81.022 183.164 81.246C182.837 81.4607 182.59 81.764 182.422 82.156C182.254 82.5387 182.17 82.9867 182.17 83.5V83.584C182.17 84.4427 182.375 85.096 182.786 85.544C183.206 85.992 183.798 86.216 184.564 86.216C184.881 86.216 185.194 86.174 185.502 86.09C185.819 86.006 186.127 85.866 186.426 85.67C186.556 85.586 186.673 85.5487 186.776 85.558C186.888 85.558 186.976 85.5907 187.042 85.656C187.107 85.712 187.149 85.7867 187.168 85.88C187.196 85.964 187.186 86.0573 187.14 86.16C187.102 86.2627 187.023 86.3513 186.902 86.426C186.594 86.65 186.23 86.8227 185.81 86.944C185.39 87.0653 184.974 87.126 184.564 87.126Z" fill="#F9FAFE"/>
    <path d="M2.358 17.126C2.094 17.126 1.89 17.054 1.746 16.91C1.602 16.754 1.53 16.538 1.53 16.262V5.156C1.53 4.88 1.602 4.67 1.746 4.526C1.902 4.382 2.112 4.31 2.376 4.31H6.66C8.028 4.31 9.078 4.646 9.81 5.318C10.554 5.99 10.926 6.932 10.926 8.144C10.926 9.368 10.554 10.316 9.81 10.988C9.078 11.66 8.028 11.996 6.66 11.996H3.204V16.262C3.204 16.538 3.132 16.754 2.988 16.91C2.856 17.054 2.646 17.126 2.358 17.126ZM3.204 10.646H6.444C7.38 10.646 8.082 10.436 8.55 10.016C9.03 9.584 9.27 8.96 9.27 8.144C9.27 7.328 9.03 6.716 8.55 6.308C8.082 5.888 7.38 5.678 6.444 5.678H3.204V10.646ZM13.4452 17.126C13.1692 17.126 12.9592 17.054 12.8152 16.91C12.6712 16.766 12.5992 16.556 12.5992 16.28V8.936C12.5992 8.66 12.6712 8.456 12.8152 8.324C12.9592 8.18 13.1572 8.108 13.4092 8.108C13.6612 8.108 13.8532 8.18 13.9852 8.324C14.1292 8.456 14.2012 8.66 14.2012 8.936V10.322H14.0212C14.2132 9.602 14.5732 9.056 15.1012 8.684C15.6292 8.312 16.2952 8.102 17.0992 8.054C17.2912 8.042 17.4472 8.09 17.5672 8.198C17.6872 8.294 17.7532 8.462 17.7652 8.702C17.7772 8.93 17.7232 9.116 17.6032 9.26C17.4832 9.392 17.2972 9.47 17.0452 9.494L16.7212 9.512C15.9292 9.596 15.3172 9.854 14.8852 10.286C14.4652 10.718 14.2552 11.312 14.2552 12.068V16.28C14.2552 16.556 14.1832 16.766 14.0392 16.91C13.9072 17.054 13.7092 17.126 13.4452 17.126ZM19.9834 17.09C19.7314 17.09 19.5334 17.012 19.3894 16.856C19.2454 16.7 19.1734 16.484 19.1734 16.208V9.026C19.1734 8.738 19.2454 8.522 19.3894 8.378C19.5334 8.222 19.7314 8.144 19.9834 8.144C20.2474 8.144 20.4514 8.222 20.5954 8.378C20.7394 8.522 20.8114 8.738 20.8114 9.026V16.208C20.8114 16.484 20.7394 16.7 20.5954 16.856C20.4634 17.012 20.2594 17.09 19.9834 17.09ZM19.9834 6.2C19.6594 6.2 19.4014 6.116 19.2094 5.948C19.0294 5.768 18.9394 5.534 18.9394 5.246C18.9394 4.934 19.0294 4.7 19.2094 4.544C19.4014 4.376 19.6594 4.292 19.9834 4.292C20.3314 4.292 20.5894 4.376 20.7574 4.544C20.9374 4.7 21.0274 4.934 21.0274 5.246C21.0274 5.534 20.9374 5.768 20.7574 5.948C20.5894 6.116 20.3314 6.2 19.9834 6.2ZM24.2909 17.126C24.0389 17.126 23.8409 17.054 23.6969 16.91C23.5529 16.766 23.4809 16.556 23.4809 16.28V8.936C23.4809 8.66 23.5529 8.456 23.6969 8.324C23.8409 8.18 24.0389 8.108 24.2909 8.108C24.5429 8.108 24.7349 8.18 24.8669 8.324C25.0109 8.456 25.0829 8.66 25.0829 8.936V10.466L24.8849 10.142C25.1129 9.482 25.4789 8.972 25.9829 8.612C26.4989 8.252 27.1109 8.072 27.8189 8.072C28.5629 8.072 29.1629 8.252 29.6189 8.612C30.0749 8.96 30.3809 9.494 30.5369 10.214H30.2849C30.5009 9.554 30.8849 9.032 31.4369 8.648C32.0009 8.264 32.6549 8.072 33.3989 8.072C34.0589 8.072 34.5989 8.204 35.0189 8.468C35.4509 8.72 35.7749 9.104 35.9909 9.62C36.2069 10.124 36.3149 10.772 36.3149 11.564V16.28C36.3149 16.556 36.2429 16.766 36.0989 16.91C35.9549 17.054 35.7569 17.126 35.5049 17.126C35.2409 17.126 35.0369 17.054 34.8929 16.91C34.7489 16.766 34.6769 16.556 34.6769 16.28V11.636C34.6769 10.868 34.5449 10.304 34.2809 9.944C34.0169 9.584 33.5729 9.404 32.9489 9.404C32.2649 9.404 31.7189 9.644 31.3109 10.124C30.9149 10.592 30.7169 11.24 30.7169 12.068V16.28C30.7169 16.556 30.6449 16.766 30.5009 16.91C30.3689 17.054 30.1709 17.126 29.9069 17.126C29.6429 17.126 29.4389 17.054 29.2949 16.91C29.1509 16.766 29.0789 16.556 29.0789 16.28V11.636C29.0789 10.868 28.9469 10.304 28.6829 9.944C28.4189 9.584 27.9749 9.404 27.3509 9.404C26.6669 9.404 26.1209 9.644 25.7129 10.124C25.3169 10.592 25.1189 11.24 25.1189 12.068V16.28C25.1189 16.844 24.8429 17.126 24.2909 17.126ZM41.7388 17.162C41.1388 17.162 40.5928 17.042 40.1008 16.802C39.6208 16.562 39.2428 16.238 38.9668 15.83C38.7028 15.422 38.5708 14.966 38.5708 14.462C38.5708 13.814 38.7328 13.304 39.0568 12.932C39.3808 12.56 39.9268 12.296 40.6948 12.14C41.4628 11.972 42.4948 11.888 43.7908 11.888H44.6368V12.932H43.8268C42.9028 12.932 42.1708 12.974 41.6308 13.058C41.1028 13.142 40.7308 13.292 40.5148 13.508C40.2988 13.712 40.1908 14 40.1908 14.372C40.1908 14.84 40.3528 15.224 40.6768 15.524C41.0128 15.824 41.4688 15.974 42.0448 15.974C42.5008 15.974 42.9028 15.866 43.2508 15.65C43.5988 15.422 43.8748 15.122 44.0788 14.75C44.2828 14.366 44.3848 13.928 44.3848 13.436V11.366C44.3848 10.658 44.2408 10.148 43.9528 9.836C43.6648 9.512 43.1788 9.35 42.4948 9.35C42.0988 9.35 41.6908 9.404 41.2708 9.512C40.8508 9.62 40.4128 9.788 39.9568 10.016C39.7768 10.1 39.6208 10.13 39.4888 10.106C39.3568 10.07 39.2488 9.998 39.1648 9.89C39.0928 9.77 39.0508 9.644 39.0388 9.512C39.0388 9.368 39.0688 9.23 39.1288 9.098C39.2008 8.966 39.3208 8.87 39.4888 8.81C40.0168 8.546 40.5388 8.36 41.0548 8.252C41.5828 8.132 42.0748 8.072 42.5308 8.072C43.3108 8.072 43.9528 8.198 44.4568 8.45C44.9608 8.69 45.3388 9.068 45.5908 9.584C45.8428 10.088 45.9688 10.736 45.9688 11.528V16.28C45.9688 16.556 45.9028 16.766 45.7708 16.91C45.6388 17.054 45.4468 17.126 45.1948 17.126C44.9548 17.126 44.7628 17.054 44.6188 16.91C44.4868 16.766 44.4208 16.556 44.4208 16.28V15.002H44.5828C44.4868 15.446 44.3068 15.83 44.0428 16.154C43.7788 16.478 43.4488 16.73 43.0528 16.91C42.6688 17.078 42.2308 17.162 41.7388 17.162ZM49.3924 17.126C49.1164 17.126 48.9064 17.054 48.7624 16.91C48.6184 16.766 48.5464 16.556 48.5464 16.28V8.936C48.5464 8.66 48.6184 8.456 48.7624 8.324C48.9064 8.18 49.1044 8.108 49.3564 8.108C49.6084 8.108 49.8004 8.18 49.9324 8.324C50.0764 8.456 50.1484 8.66 50.1484 8.936V10.322H49.9684C50.1604 9.602 50.5204 9.056 51.0484 8.684C51.5764 8.312 52.2424 8.102 53.0464 8.054C53.2384 8.042 53.3944 8.09 53.5144 8.198C53.6344 8.294 53.7004 8.462 53.7124 8.702C53.7244 8.93 53.6704 9.116 53.5504 9.26C53.4304 9.392 53.2444 9.47 52.9924 9.494L52.6684 9.512C51.8764 9.596 51.2644 9.854 50.8324 10.286C50.4124 10.718 50.2024 11.312 50.2024 12.068V16.28C50.2024 16.556 50.1304 16.766 49.9864 16.91C49.8544 17.054 49.6564 17.126 49.3924 17.126ZM57.6816 20.366C57.4896 20.366 57.3276 20.312 57.1956 20.204C57.0756 20.108 57.0036 19.97 56.9796 19.79C56.9676 19.622 57.0036 19.442 57.0876 19.25L58.3116 16.478V17.162L54.9096 9.242C54.8256 9.038 54.7956 8.852 54.8196 8.684C54.8436 8.516 54.9216 8.378 55.0536 8.27C55.1976 8.162 55.3896 8.108 55.6296 8.108C55.8336 8.108 55.9956 8.156 56.1156 8.252C56.2356 8.348 56.3496 8.516 56.4576 8.756L59.2836 15.722H58.7796L61.6596 8.756C61.7556 8.516 61.8696 8.348 62.0016 8.252C62.1336 8.156 62.3136 8.108 62.5416 8.108C62.7456 8.108 62.9016 8.162 63.0096 8.27C63.1296 8.378 63.2016 8.516 63.2256 8.684C63.2496 8.852 63.2136 9.032 63.1176 9.224L58.5816 19.718C58.4616 19.97 58.3356 20.138 58.2036 20.222C58.0836 20.318 57.9096 20.366 57.6816 20.366ZM75.4538 17.162C74.1938 17.162 73.1138 16.898 72.2138 16.37C71.3138 15.842 70.6178 15.092 70.1258 14.12C69.6458 13.136 69.4058 11.978 69.4058 10.646C69.4058 9.65 69.5438 8.756 69.8198 7.964C70.0958 7.16 70.4918 6.476 71.0078 5.912C71.5238 5.336 72.1538 4.898 72.8978 4.598C73.6538 4.298 74.5058 4.148 75.4538 4.148C76.1738 4.148 76.8638 4.25 77.5238 4.454C78.1958 4.658 78.7718 4.946 79.2518 5.318C79.4438 5.45 79.5698 5.6 79.6298 5.768C79.6898 5.936 79.6958 6.098 79.6478 6.254C79.6118 6.398 79.5338 6.524 79.4138 6.632C79.3058 6.728 79.1678 6.782 78.9998 6.794C78.8318 6.794 78.6518 6.728 78.4598 6.596C78.0398 6.272 77.5778 6.038 77.0738 5.894C76.5818 5.738 76.0538 5.66 75.4898 5.66C74.5658 5.66 73.7798 5.858 73.1318 6.254C72.4958 6.638 72.0098 7.202 71.6738 7.946C71.3498 8.678 71.1878 9.578 71.1878 10.646C71.1878 11.702 71.3498 12.608 71.6738 13.364C72.0098 14.108 72.4958 14.678 73.1318 15.074C73.7798 15.458 74.5658 15.65 75.4898 15.65C76.0538 15.65 76.5878 15.572 77.0918 15.416C77.6078 15.26 78.0818 15.02 78.5137 14.696C78.7058 14.564 78.8798 14.504 79.0358 14.516C79.2038 14.528 79.3418 14.582 79.4498 14.678C79.5578 14.762 79.6298 14.882 79.6658 15.038C79.7138 15.182 79.7138 15.332 79.6658 15.488C79.6178 15.644 79.5098 15.782 79.3418 15.902C78.8498 16.322 78.2618 16.64 77.5778 16.856C76.9058 17.06 76.1978 17.162 75.4538 17.162ZM84.8974 17.162C84.0334 17.162 83.2834 16.976 82.6474 16.604C82.0114 16.232 81.5194 15.704 81.1714 15.02C80.8234 14.336 80.6494 13.532 80.6494 12.608C80.6494 11.912 80.7454 11.288 80.9374 10.736C81.1414 10.172 81.4294 9.692 81.8014 9.296C82.1734 8.9 82.6174 8.6 83.1334 8.396C83.6614 8.18 84.2494 8.072 84.8974 8.072C85.7614 8.072 86.5114 8.258 87.1474 8.63C87.7834 9.002 88.2754 9.53 88.6234 10.214C88.9714 10.886 89.1454 11.684 89.1454 12.608C89.1454 13.304 89.0434 13.934 88.8394 14.498C88.6474 15.062 88.3654 15.542 87.9934 15.938C87.6214 16.334 87.1714 16.64 86.6434 16.856C86.1274 17.06 85.5454 17.162 84.8974 17.162ZM84.8974 15.866C85.4254 15.866 85.8814 15.74 86.2654 15.488C86.6614 15.236 86.9614 14.87 87.1654 14.39C87.3814 13.91 87.4894 13.316 87.4894 12.608C87.4894 11.552 87.2554 10.748 86.7874 10.196C86.3194 9.644 85.6894 9.368 84.8974 9.368C84.3814 9.368 83.9254 9.494 83.5294 9.746C83.1454 9.986 82.8454 10.346 82.6294 10.826C82.4134 11.306 82.3054 11.9 82.3054 12.608C82.3054 13.664 82.5394 14.474 83.0074 15.038C83.4874 15.59 84.1174 15.866 84.8974 15.866ZM93.9977 17.162C93.0977 17.162 92.4137 16.898 91.9457 16.37C91.4777 15.83 91.2437 15.056 91.2437 14.048V5.012C91.2437 4.736 91.3157 4.532 91.4597 4.4C91.6037 4.256 91.8017 4.184 92.0537 4.184C92.3177 4.184 92.5217 4.256 92.6657 4.4C92.8097 4.532 92.8817 4.736 92.8817 5.012V13.922C92.8817 14.546 93.0077 15.014 93.2597 15.326C93.5237 15.626 93.8957 15.776 94.3757 15.776C94.4837 15.776 94.5797 15.776 94.6637 15.776C94.7477 15.764 94.8317 15.752 94.9157 15.74C95.0477 15.728 95.1437 15.764 95.2037 15.848C95.2637 15.932 95.2937 16.1 95.2937 16.352C95.2937 16.58 95.2397 16.76 95.1317 16.892C95.0357 17.012 94.8737 17.09 94.6457 17.126C94.5377 17.138 94.4297 17.144 94.3217 17.144C94.2137 17.156 94.1057 17.162 93.9977 17.162ZM100.296 17.162C99.4319 17.162 98.6819 16.976 98.0459 16.604C97.4099 16.232 96.9179 15.704 96.5699 15.02C96.2219 14.336 96.0479 13.532 96.0479 12.608C96.0479 11.912 96.1439 11.288 96.3359 10.736C96.5399 10.172 96.8279 9.692 97.1999 9.296C97.5719 8.9 98.0159 8.6 98.5319 8.396C99.0599 8.18 99.6479 8.072 100.296 8.072C101.16 8.072 101.91 8.258 102.546 8.63C103.182 9.002 103.674 9.53 104.022 10.214C104.37 10.886 104.544 11.684 104.544 12.608C104.544 13.304 104.442 13.934 104.238 14.498C104.046 15.062 103.764 15.542 103.392 15.938C103.02 16.334 102.57 16.64 102.042 16.856C101.526 17.06 100.944 17.162 100.296 17.162ZM100.296 15.866C100.824 15.866 101.28 15.74 101.664 15.488C102.06 15.236 102.36 14.87 102.564 14.39C102.78 13.91 102.888 13.316 102.888 12.608C102.888 11.552 102.654 10.748 102.186 10.196C101.718 9.644 101.088 9.368 100.296 9.368C99.7799 9.368 99.3239 9.494 98.9279 9.746C98.5439 9.986 98.2439 10.346 98.0279 10.826C97.8119 11.306 97.7039 11.9 97.7039 12.608C97.7039 13.664 97.9379 14.474 98.4059 15.038C98.8859 15.59 99.5159 15.866 100.296 15.866ZM107.488 17.126C107.212 17.126 107.002 17.054 106.858 16.91C106.714 16.766 106.642 16.556 106.642 16.28V8.936C106.642 8.66 106.714 8.456 106.858 8.324C107.002 8.18 107.2 8.108 107.452 8.108C107.704 8.108 107.896 8.18 108.028 8.324C108.172 8.456 108.244 8.66 108.244 8.936V10.322H108.064C108.256 9.602 108.616 9.056 109.144 8.684C109.672 8.312 110.338 8.102 111.142 8.054C111.334 8.042 111.49 8.09 111.61 8.198C111.73 8.294 111.796 8.462 111.808 8.702C111.82 8.93 111.766 9.116 111.646 9.26C111.526 9.392 111.34 9.47 111.088 9.494L110.764 9.512C109.972 9.596 109.36 9.854 108.928 10.286C108.508 10.718 108.298 11.312 108.298 12.068V16.28C108.298 16.556 108.226 16.766 108.082 16.91C107.95 17.054 107.752 17.126 107.488 17.126Z" fill="#F9FAFE"/>
    <rect y="36" width="30" height="30" rx="5" fill="#212121"/>
    <rect x="50" y="36" width="30" height="30" rx="5" fill="#90542F"/>
    <rect x="100" y="36" width="30" height="30" rx="5" fill="#FF0000"/>
    <rect x="150" y="36" width="30" height="30" rx="5" fill="#FBE7A1"/>
    <rect x="145" y="93" width="40" height="2" rx="1" fill="url(#paint0_linear_281_2070)"/>
    <defs>
        <linearGradient id="paint0_linear_281_2070" x1="146.481" y1="93.3" x2="174.18" y2="109.164" gradientUnits="userSpaceOnUse">
            <stop stop-color="#F493B8"/>
            <stop offset="0.614583" stop-color="#AD7FFA"/>
            <stop offset="1" stop-color="#93B2FD"/>
        </linearGradient>
    </defs>
</svg>
