<svg width="137" height="36" viewBox="0 0 137 36" fill="none" xmlns="http://www.w3.org/2000/svg">
    <rect width="35.5186" height="35.5186" rx="17.7593" fill="#F9FAFE"/>
    <path d="M17.8094 24.208C17.5054 24.208 17.2734 24.128 17.1134 23.968C16.9694 23.792 16.8974 23.56 16.8974 23.272V19H12.6974C12.4094 19 12.1854 18.928 12.0254 18.784C11.8654 18.624 11.7854 18.4 11.7854 18.112C11.7854 17.824 11.8654 17.608 12.0254 17.464C12.1854 17.304 12.4094 17.224 12.6974 17.224H16.8974V13.072C16.8974 12.784 16.9694 12.56 17.1134 12.4C17.2734 12.24 17.5134 12.16 17.8334 12.16C18.1214 12.16 18.3374 12.24 18.4814 12.4C18.6414 12.56 18.7214 12.784 18.7214 13.072V17.224H22.9214C23.2254 17.224 23.4494 17.304 23.5934 17.464C23.7534 17.608 23.8334 17.824 23.8334 18.112C23.8334 18.4 23.7534 18.624 23.5934 18.784C23.4494 18.928 23.2254 19 22.9214 19H18.7214V23.272C18.7214 23.56 18.6414 23.792 18.4814 23.968C18.3374 24.128 18.1134 24.208 17.8094 24.208Z" fill="#AD7FFA"/>
    <rect x="50.7402" width="35.5186" height="35.5186" rx="17.7593" fill="#F9FAFE"/>
    <path d="M71.4182 11.6704C72.2593 11.6704 73.0659 12.0045 73.6606 12.5993C74.2554 13.194 74.5895 14.0006 74.5895 14.8417V21.1843C74.5895 22.0254 74.2554 22.832 73.6606 23.4268C73.0659 24.0215 72.2593 24.3556 71.4182 24.3556H65.0756C64.2345 24.3556 63.4279 24.0215 62.8331 23.4268C62.2384 22.832 61.9043 22.0254 61.9043 21.1843V14.8417C61.9043 14.0006 62.2384 13.194 62.8331 12.5993C63.4279 12.0045 64.2345 11.6704 65.0756 11.6704H71.4182Z" fill="#F9FAFE" stroke="#F493B8" stroke-linecap="round" stroke-linejoin="round"/>
    <path d="M70.5244 19.1565C70.246 19.693 69.7854 20.1124 69.2253 20.3394C68.6652 20.5664 68.0424 20.586 67.4692 20.3946C66.8959 20.2033 66.4098 19.8136 66.0983 19.2957C65.7868 18.7779 65.6704 18.1658 65.7701 17.5697C65.8697 16.9737 66.1789 16.4327 66.6419 16.0443C67.1049 15.656 67.6914 15.4456 68.2957 15.4512C68.9 15.4567 69.4825 15.6778 69.9383 16.0746C70.3941 16.4715 70.6933 17.018 70.782 17.6158C70.8603 18.1437 70.7701 18.6828 70.5244 19.1565Z" fill="#F9FAFE" stroke="#F493B8" stroke-linecap="round" stroke-linejoin="round"/>
    <path d="M71.7363 14.5246H71.745H71.7363Z" fill="#F9FAFE"/>
    <path d="M71.7363 14.5246H71.745" stroke="#F493B8" stroke-linecap="round" stroke-linejoin="round"/>
    <rect x="101.481" width="35.5186" height="35.5186" rx="17.7593" fill="#F9FAFE"/>
    <path d="M113.964 24.2805C114.057 24.3324 114.161 24.3582 114.267 24.3554C114.372 24.3525 114.475 24.3211 114.565 24.2643L118.988 21.4645L123.411 24.2643C123.5 24.3207 123.602 24.3522 123.707 24.3554C123.813 24.3578 123.917 24.3319 124.01 24.2805C124.102 24.2285 124.179 24.1525 124.233 24.0602C124.287 23.9679 124.315 23.8628 124.315 23.7558V12.9619C124.315 12.4848 124.128 12.0272 123.794 11.6899C123.461 11.3525 123.01 11.163 122.538 11.163H115.436C114.964 11.163 114.513 11.3525 114.179 11.6899C113.846 12.0272 113.659 12.4848 113.659 12.9619V23.7558C113.659 23.8628 113.687 23.9679 113.741 24.0602C113.795 24.1525 113.872 24.2285 113.964 24.2805ZM114.843 12.9619C114.843 12.8029 114.906 12.6504 115.017 12.5379C115.128 12.4255 115.278 12.3623 115.436 12.3623H122.541C122.698 12.3623 122.848 12.4255 122.959 12.5379C123.071 12.6504 123.133 12.8029 123.133 12.9619V22.6764L119.302 20.2514C119.208 20.1918 119.099 20.1602 118.988 20.1602C118.877 20.1602 118.768 20.1918 118.674 20.2514L114.843 22.6764V12.9619Z" fill="#93B2FD"/>
</svg>
