<svg width="294" height="39" viewBox="0 0 294 39" fill="none" xmlns="http://www.w3.org/2000/svg">
    <rect opacity="0.3" width="294" height="38.3812" rx="19.1906" fill="#ECEEFB"/>
    <path d="M40.504 23.12C39.912 23.12 39.392 23.032 38.944 22.856C38.496 22.68 38.064 22.4 37.648 22.016C37.592 21.96 37.544 21.9 37.504 21.836C37.472 21.764 37.456 21.688 37.456 21.608C37.456 21.48 37.5 21.368 37.588 21.272C37.684 21.168 37.8 21.116 37.936 21.116C38.048 21.116 38.148 21.16 38.236 21.248C38.548 21.552 38.884 21.784 39.244 21.944C39.612 22.104 40.024 22.184 40.48 22.184C40.832 22.184 41.148 22.128 41.428 22.016C41.716 21.904 41.944 21.748 42.112 21.548C42.28 21.348 42.364 21.116 42.364 20.852C42.356 20.532 42.26 20.268 42.076 20.06C41.9 19.852 41.652 19.68 41.332 19.544C41.02 19.4 40.656 19.28 40.24 19.184C39.872 19.096 39.532 18.988 39.22 18.86C38.916 18.732 38.652 18.576 38.428 18.392C38.204 18.2 38.028 17.972 37.9 17.708C37.78 17.436 37.72 17.12 37.72 16.76C37.72 16.304 37.84 15.904 38.08 15.56C38.32 15.216 38.652 14.952 39.076 14.768C39.5 14.576 39.988 14.48 40.54 14.48C41.028 14.48 41.488 14.56 41.92 14.72C42.36 14.88 42.712 15.1 42.976 15.38C43.136 15.532 43.216 15.68 43.216 15.824C43.216 15.944 43.164 16.056 43.06 16.16C42.964 16.256 42.852 16.304 42.724 16.304C42.636 16.304 42.556 16.272 42.484 16.208C42.348 16.056 42.176 15.92 41.968 15.8C41.76 15.68 41.532 15.584 41.284 15.512C41.036 15.44 40.788 15.404 40.54 15.404C40.172 15.404 39.848 15.46 39.568 15.572C39.288 15.676 39.068 15.828 38.908 16.028C38.756 16.22 38.68 16.452 38.68 16.724C38.68 17.028 38.768 17.28 38.944 17.48C39.12 17.672 39.356 17.832 39.652 17.96C39.948 18.08 40.276 18.188 40.636 18.284C41.028 18.38 41.388 18.492 41.716 18.62C42.052 18.74 42.34 18.892 42.58 19.076C42.82 19.26 43.004 19.496 43.132 19.784C43.268 20.064 43.336 20.412 43.336 20.828C43.336 21.268 43.212 21.66 42.964 22.004C42.716 22.348 42.376 22.62 41.944 22.82C41.52 23.012 41.04 23.112 40.504 23.12ZM47.6466 23.12C47.0066 23.12 46.4466 22.984 45.9666 22.712C45.4866 22.44 45.1106 22.068 44.8386 21.596C44.5746 21.116 44.4426 20.564 44.4426 19.94C44.4426 19.244 44.5786 18.652 44.8506 18.164C45.1306 17.668 45.4906 17.292 45.9306 17.036C46.3786 16.772 46.8506 16.64 47.3466 16.64C47.7146 16.64 48.0706 16.708 48.4146 16.844C48.7586 16.98 49.0626 17.18 49.3266 17.444C49.5906 17.7 49.8026 18.012 49.9626 18.38C50.1226 18.74 50.2066 19.144 50.2146 19.592C50.2146 19.72 50.1666 19.828 50.0706 19.916C49.9746 20.004 49.8626 20.048 49.7346 20.048H44.9946L44.7786 19.22H49.3986L49.2066 19.388V19.124C49.1746 18.796 49.0626 18.516 48.8706 18.284C48.6866 18.044 48.4586 17.86 48.1866 17.732C47.9226 17.604 47.6426 17.54 47.3466 17.54C47.1066 17.54 46.8666 17.584 46.6266 17.672C46.3946 17.752 46.1826 17.888 45.9906 18.08C45.8066 18.264 45.6546 18.504 45.5346 18.8C45.4226 19.096 45.3666 19.452 45.3666 19.868C45.3666 20.332 45.4586 20.74 45.6426 21.092C45.8346 21.444 46.0986 21.724 46.4346 21.932C46.7706 22.132 47.1626 22.232 47.6106 22.232C47.8906 22.232 48.1346 22.196 48.3426 22.124C48.5506 22.052 48.7306 21.964 48.8826 21.86C49.0346 21.748 49.1626 21.636 49.2666 21.524C49.3706 21.452 49.4706 21.416 49.5666 21.416C49.6866 21.416 49.7826 21.456 49.8546 21.536C49.9346 21.616 49.9746 21.712 49.9746 21.824C49.9746 21.96 49.9106 22.08 49.7826 22.184C49.5586 22.432 49.2546 22.652 48.8706 22.844C48.4866 23.028 48.0786 23.12 47.6466 23.12ZM56.8164 16.736C56.9524 16.736 57.0644 16.784 57.1524 16.88C57.2484 16.968 57.2964 17.08 57.2964 17.216V22.508C57.2964 22.644 57.2484 22.76 57.1524 22.856C57.0644 22.952 56.9524 23 56.8164 23C56.6724 23 56.5564 22.952 56.4684 22.856C56.3804 22.76 56.3364 22.644 56.3364 22.508V21.368L56.5644 21.344C56.5644 21.52 56.5044 21.712 56.3844 21.92C56.2644 22.128 56.1004 22.324 55.8924 22.508C55.6844 22.684 55.4364 22.832 55.1484 22.952C54.8684 23.064 54.5644 23.12 54.2364 23.12C53.6924 23.12 53.2044 22.98 52.7724 22.7C52.3404 22.412 51.9964 22.024 51.7404 21.536C51.4924 21.048 51.3684 20.492 51.3684 19.868C51.3684 19.236 51.4924 18.68 51.7404 18.2C51.9964 17.712 52.3404 17.332 52.7724 17.06C53.2044 16.78 53.6844 16.64 54.2124 16.64C54.5564 16.64 54.8764 16.696 55.1724 16.808C55.4684 16.92 55.7244 17.072 55.9404 17.264C56.1644 17.456 56.3364 17.668 56.4564 17.9C56.5844 18.132 56.6484 18.364 56.6484 18.596L56.3364 18.524V17.216C56.3364 17.08 56.3804 16.968 56.4684 16.88C56.5564 16.784 56.6724 16.736 56.8164 16.736ZM54.3444 22.232C54.7444 22.232 55.0964 22.128 55.4004 21.92C55.7124 21.712 55.9524 21.432 56.1204 21.08C56.2964 20.72 56.3844 20.316 56.3844 19.868C56.3844 19.428 56.2964 19.032 56.1204 18.68C55.9524 18.32 55.7124 18.04 55.4004 17.84C55.0964 17.632 54.7444 17.528 54.3444 17.528C53.9524 17.528 53.6004 17.628 53.2884 17.828C52.9844 18.028 52.7444 18.304 52.5684 18.656C52.3924 19.008 52.3044 19.412 52.3044 19.868C52.3044 20.316 52.3884 20.72 52.5564 21.08C52.7324 21.432 52.9724 21.712 53.2764 21.92C53.5884 22.128 53.9444 22.232 54.3444 22.232ZM59.5555 23C59.4195 23 59.3035 22.952 59.2075 22.856C59.1195 22.76 59.0755 22.644 59.0755 22.508V17.276C59.0755 17.14 59.1195 17.028 59.2075 16.94C59.3035 16.844 59.4195 16.796 59.5555 16.796C59.6995 16.796 59.8155 16.844 59.9035 16.94C59.9915 17.028 60.0355 17.14 60.0355 17.276V18.86L59.8915 18.608C59.9395 18.36 60.0235 18.12 60.1435 17.888C60.2715 17.648 60.4315 17.436 60.6235 17.252C60.8155 17.06 61.0355 16.912 61.2835 16.808C61.5315 16.696 61.8035 16.64 62.0995 16.64C62.2755 16.64 62.4355 16.684 62.5795 16.772C62.7315 16.852 62.8075 16.968 62.8075 17.12C62.8075 17.288 62.7635 17.412 62.6755 17.492C62.5875 17.572 62.4875 17.612 62.3755 17.612C62.2715 17.612 62.1715 17.592 62.0755 17.552C61.9795 17.504 61.8595 17.48 61.7155 17.48C61.5155 17.48 61.3155 17.536 61.1155 17.648C60.9235 17.752 60.7435 17.904 60.5755 18.104C60.4155 18.304 60.2835 18.532 60.1795 18.788C60.0835 19.036 60.0355 19.304 60.0355 19.592V22.508C60.0355 22.644 59.9875 22.76 59.8915 22.856C59.8035 22.952 59.6915 23 59.5555 23ZM66.3824 16.64C66.7904 16.64 67.1584 16.684 67.4864 16.772C67.8144 16.86 68.0744 16.98 68.2664 17.132C68.4584 17.284 68.5544 17.456 68.5544 17.648C68.5544 17.752 68.5184 17.852 68.4464 17.948C68.3744 18.044 68.2784 18.092 68.1584 18.092C68.0464 18.092 67.9544 18.072 67.8824 18.032C67.8184 17.992 67.7544 17.94 67.6904 17.876C67.6344 17.812 67.5544 17.756 67.4504 17.708C67.3544 17.652 67.2144 17.608 67.0304 17.576C66.8464 17.544 66.6624 17.528 66.4784 17.528C66.0384 17.528 65.6504 17.632 65.3144 17.84C64.9864 18.048 64.7264 18.328 64.5344 18.68C64.3424 19.032 64.2464 19.432 64.2464 19.88C64.2464 20.328 64.3384 20.728 64.5224 21.08C64.7064 21.432 64.9624 21.712 65.2904 21.92C65.6184 22.128 65.9984 22.232 66.4304 22.232C66.7104 22.232 66.9344 22.208 67.1024 22.16C67.2704 22.112 67.4104 22.056 67.5224 21.992C67.6664 21.912 67.7744 21.832 67.8464 21.752C67.9264 21.672 68.0304 21.632 68.1584 21.632C68.2944 21.632 68.3984 21.676 68.4704 21.764C68.5504 21.852 68.5904 21.96 68.5904 22.088C68.5904 22.232 68.4904 22.384 68.2904 22.544C68.0904 22.704 67.8184 22.84 67.4744 22.952C67.1384 23.064 66.7544 23.12 66.3224 23.12C65.7144 23.12 65.1824 22.98 64.7264 22.7C64.2704 22.412 63.9144 22.024 63.6584 21.536C63.4104 21.04 63.2864 20.488 63.2864 19.88C63.2864 19.272 63.4144 18.724 63.6704 18.236C63.9344 17.748 64.2984 17.36 64.7624 17.072C65.2264 16.784 65.7664 16.64 66.3824 16.64ZM72.845 16.7C73.373 16.7 73.789 16.816 74.093 17.048C74.405 17.272 74.625 17.576 74.753 17.96C74.889 18.336 74.957 18.756 74.957 19.22V22.508C74.957 22.644 74.909 22.76 74.813 22.856C74.725 22.952 74.613 23 74.477 23C74.341 23 74.225 22.952 74.129 22.856C74.041 22.76 73.997 22.644 73.997 22.508V19.22C73.997 18.916 73.953 18.644 73.865 18.404C73.777 18.156 73.629 17.96 73.421 17.816C73.221 17.664 72.945 17.588 72.593 17.588C72.265 17.588 71.965 17.664 71.693 17.816C71.421 17.96 71.205 18.156 71.045 18.404C70.885 18.644 70.805 18.916 70.805 19.22V22.508C70.805 22.644 70.757 22.76 70.661 22.856C70.573 22.952 70.461 23 70.325 23C70.189 23 70.073 22.952 69.977 22.856C69.889 22.76 69.845 22.644 69.845 22.508V14.6C69.845 14.464 69.889 14.352 69.977 14.264C70.073 14.168 70.189 14.12 70.325 14.12C70.469 14.12 70.585 14.168 70.673 14.264C70.761 14.352 70.805 14.464 70.805 14.6V18.188L70.565 18.452C70.605 18.244 70.693 18.036 70.829 17.828C70.965 17.612 71.137 17.42 71.345 17.252C71.553 17.084 71.785 16.952 72.041 16.856C72.297 16.752 72.565 16.7 72.845 16.7ZM82.6323 14.144C82.7683 14.144 82.9083 14.16 83.0523 14.192C83.2043 14.224 83.3323 14.28 83.4363 14.36C83.5483 14.44 83.6043 14.548 83.6043 14.684C83.6043 14.812 83.5643 14.92 83.4843 15.008C83.4043 15.088 83.3083 15.128 83.1963 15.128C83.1243 15.128 83.0243 15.108 82.8963 15.068C82.7683 15.02 82.6363 14.996 82.5003 14.996C82.3163 14.996 82.1643 15.036 82.0443 15.116C81.9323 15.196 81.8483 15.304 81.7923 15.44C81.7443 15.568 81.7203 15.712 81.7203 15.872V22.508C81.7203 22.644 81.6723 22.76 81.5763 22.856C81.4883 22.952 81.3763 23 81.2403 23C81.0963 23 80.9803 22.952 80.8923 22.856C80.8043 22.76 80.7603 22.644 80.7603 22.508V15.884C80.7603 15.348 80.9243 14.924 81.2523 14.612C81.5883 14.3 82.0483 14.144 82.6323 14.144ZM82.9683 16.892C83.0963 16.892 83.2043 16.936 83.2923 17.024C83.3803 17.104 83.4243 17.208 83.4243 17.336C83.4243 17.464 83.3803 17.572 83.2923 17.66C83.2043 17.74 83.0963 17.78 82.9683 17.78H79.9563C79.8283 17.78 79.7203 17.736 79.6323 17.648C79.5443 17.56 79.5003 17.456 79.5003 17.336C79.5003 17.2 79.5443 17.092 79.6323 17.012C79.7203 16.932 79.8283 16.892 79.9563 16.892H82.9683ZM87.1154 23.12C86.4754 23.12 85.9154 22.984 85.4354 22.712C84.9554 22.44 84.5794 22.068 84.3074 21.596C84.0434 21.116 83.9114 20.564 83.9114 19.94C83.9114 19.244 84.0474 18.652 84.3194 18.164C84.5994 17.668 84.9594 17.292 85.3994 17.036C85.8474 16.772 86.3194 16.64 86.8154 16.64C87.1834 16.64 87.5394 16.708 87.8834 16.844C88.2274 16.98 88.5314 17.18 88.7954 17.444C89.0594 17.7 89.2714 18.012 89.4314 18.38C89.5914 18.74 89.6754 19.144 89.6834 19.592C89.6834 19.72 89.6354 19.828 89.5394 19.916C89.4434 20.004 89.3314 20.048 89.2034 20.048H84.4634L84.2474 19.22H88.8674L88.6754 19.388V19.124C88.6434 18.796 88.5314 18.516 88.3394 18.284C88.1554 18.044 87.9274 17.86 87.6554 17.732C87.3914 17.604 87.1114 17.54 86.8154 17.54C86.5754 17.54 86.3354 17.584 86.0954 17.672C85.8634 17.752 85.6514 17.888 85.4594 18.08C85.2754 18.264 85.1234 18.504 85.0034 18.8C84.8914 19.096 84.8354 19.452 84.8354 19.868C84.8354 20.332 84.9274 20.74 85.1114 21.092C85.3034 21.444 85.5674 21.724 85.9034 21.932C86.2394 22.132 86.6314 22.232 87.0794 22.232C87.3594 22.232 87.6034 22.196 87.8114 22.124C88.0194 22.052 88.1994 21.964 88.3514 21.86C88.5034 21.748 88.6314 21.636 88.7354 21.524C88.8394 21.452 88.9394 21.416 89.0354 21.416C89.1554 21.416 89.2514 21.456 89.3234 21.536C89.4034 21.616 89.4434 21.712 89.4434 21.824C89.4434 21.96 89.3794 22.08 89.2514 22.184C89.0274 22.432 88.7234 22.652 88.3394 22.844C87.9554 23.028 87.5474 23.12 87.1154 23.12ZM93.9943 23.12C93.3543 23.12 92.7943 22.984 92.3143 22.712C91.8343 22.44 91.4583 22.068 91.1863 21.596C90.9223 21.116 90.7903 20.564 90.7903 19.94C90.7903 19.244 90.9263 18.652 91.1983 18.164C91.4783 17.668 91.8383 17.292 92.2783 17.036C92.7263 16.772 93.1983 16.64 93.6943 16.64C94.0623 16.64 94.4183 16.708 94.7623 16.844C95.1063 16.98 95.4103 17.18 95.6743 17.444C95.9383 17.7 96.1503 18.012 96.3103 18.38C96.4703 18.74 96.5543 19.144 96.5623 19.592C96.5623 19.72 96.5143 19.828 96.4183 19.916C96.3223 20.004 96.2103 20.048 96.0823 20.048H91.3423L91.1263 19.22H95.7463L95.5543 19.388V19.124C95.5223 18.796 95.4103 18.516 95.2183 18.284C95.0343 18.044 94.8063 17.86 94.5343 17.732C94.2703 17.604 93.9903 17.54 93.6943 17.54C93.4543 17.54 93.2143 17.584 92.9743 17.672C92.7423 17.752 92.5303 17.888 92.3383 18.08C92.1543 18.264 92.0023 18.504 91.8823 18.8C91.7703 19.096 91.7143 19.452 91.7143 19.868C91.7143 20.332 91.8063 20.74 91.9903 21.092C92.1823 21.444 92.4463 21.724 92.7823 21.932C93.1183 22.132 93.5103 22.232 93.9583 22.232C94.2383 22.232 94.4823 22.196 94.6903 22.124C94.8983 22.052 95.0783 21.964 95.2303 21.86C95.3823 21.748 95.5103 21.636 95.6143 21.524C95.7183 21.452 95.8183 21.416 95.9143 21.416C96.0343 21.416 96.1303 21.456 96.2023 21.536C96.2823 21.616 96.3223 21.712 96.3223 21.824C96.3223 21.96 96.2583 22.08 96.1303 22.184C95.9063 22.432 95.6023 22.652 95.2183 22.844C94.8343 23.028 94.4263 23.12 93.9943 23.12ZM103.117 14.12C103.253 14.12 103.365 14.168 103.453 14.264C103.549 14.352 103.597 14.464 103.597 14.6V22.508C103.597 22.644 103.549 22.76 103.453 22.856C103.365 22.952 103.253 23 103.117 23C102.973 23 102.857 22.952 102.769 22.856C102.681 22.76 102.637 22.644 102.637 22.508V21.368L102.865 21.284C102.865 21.476 102.805 21.68 102.685 21.896C102.565 22.104 102.401 22.3 102.193 22.484C101.985 22.668 101.737 22.82 101.449 22.94C101.169 23.06 100.865 23.12 100.537 23.12C100.001 23.12 99.5132 22.98 99.0732 22.7C98.6412 22.42 98.2972 22.036 98.0412 21.548C97.7932 21.06 97.6692 20.504 97.6692 19.88C97.6692 19.248 97.7932 18.688 98.0412 18.2C98.2972 17.712 98.6412 17.332 99.0732 17.06C99.5052 16.78 99.9852 16.64 100.513 16.64C100.849 16.64 101.165 16.696 101.461 16.808C101.757 16.92 102.013 17.072 102.229 17.264C102.453 17.456 102.629 17.668 102.757 17.9C102.885 18.132 102.949 18.364 102.949 18.596L102.637 18.524V14.6C102.637 14.464 102.681 14.352 102.769 14.264C102.857 14.168 102.973 14.12 103.117 14.12ZM100.645 22.232C101.045 22.232 101.397 22.132 101.701 21.932C102.013 21.724 102.253 21.444 102.421 21.092C102.597 20.732 102.685 20.328 102.685 19.88C102.685 19.424 102.597 19.02 102.421 18.668C102.253 18.316 102.013 18.04 101.701 17.84C101.397 17.632 101.045 17.528 100.645 17.528C100.253 17.528 99.9012 17.632 99.5892 17.84C99.2852 18.04 99.0452 18.316 98.8692 18.668C98.6932 19.02 98.6052 19.424 98.6052 19.88C98.6052 20.32 98.6932 20.72 98.8692 21.08C99.0452 21.432 99.2852 21.712 99.5892 21.92C99.9012 22.128 100.253 22.232 100.645 22.232ZM105.028 22.016C104.956 21.912 104.924 21.804 104.932 21.692C104.94 21.572 105.008 21.468 105.136 21.38C105.216 21.324 105.308 21.3 105.412 21.308C105.524 21.316 105.624 21.368 105.712 21.464C105.936 21.728 106.192 21.94 106.48 22.1C106.768 22.252 107.12 22.328 107.536 22.328C107.728 22.32 107.92 22.288 108.112 22.232C108.304 22.176 108.464 22.08 108.592 21.944C108.728 21.8 108.796 21.612 108.796 21.38C108.796 21.156 108.728 20.98 108.592 20.852C108.456 20.716 108.28 20.608 108.064 20.528C107.848 20.44 107.612 20.364 107.356 20.3C107.092 20.228 106.832 20.148 106.576 20.06C106.32 19.964 106.088 19.848 105.88 19.712C105.68 19.568 105.516 19.392 105.388 19.184C105.268 18.968 105.208 18.708 105.208 18.404C105.208 18.044 105.304 17.732 105.496 17.468C105.696 17.204 105.96 17 106.288 16.856C106.624 16.712 106.988 16.64 107.38 16.64C107.604 16.64 107.836 16.668 108.076 16.724C108.324 16.772 108.564 16.86 108.796 16.988C109.028 17.108 109.232 17.276 109.408 17.492C109.48 17.572 109.52 17.672 109.528 17.792C109.536 17.912 109.484 18.02 109.372 18.116C109.284 18.18 109.184 18.208 109.072 18.2C108.968 18.192 108.88 18.152 108.808 18.08C108.64 17.88 108.428 17.728 108.172 17.624C107.924 17.512 107.648 17.456 107.344 17.456C107.152 17.456 106.964 17.484 106.78 17.54C106.596 17.596 106.44 17.692 106.312 17.828C106.192 17.956 106.132 18.136 106.132 18.368C106.14 18.584 106.212 18.76 106.348 18.896C106.484 19.032 106.668 19.144 106.9 19.232C107.132 19.312 107.388 19.392 107.668 19.472C107.924 19.536 108.168 19.612 108.4 19.7C108.64 19.78 108.856 19.888 109.048 20.024C109.24 20.16 109.392 20.336 109.504 20.552C109.616 20.76 109.672 21.024 109.672 21.344C109.672 21.712 109.568 22.032 109.36 22.304C109.152 22.568 108.876 22.772 108.532 22.916C108.196 23.052 107.832 23.12 107.44 23.12C107 23.12 106.564 23.036 106.132 22.868C105.708 22.7 105.34 22.416 105.028 22.016Z" fill="#F9FAFE"/>
    <path d="M23.1439 21.2073H22.5544L22.3455 21.0058C23.0767 20.1553 23.5169 19.051 23.5169 17.8498C23.5169 15.1712 21.3457 13 18.6672 13C15.9886 13 13.8174 15.1712 13.8174 17.8498C13.8174 20.5283 15.9886 22.6995 18.6672 22.6995C19.8684 22.6995 20.9727 22.2593 21.8232 21.5281L22.0247 21.737V22.3265L25.7553 26.0496L26.867 24.9379L23.1439 21.2073ZM18.6672 21.2073C16.8093 21.2073 15.3096 19.7076 15.3096 17.8498C15.3096 15.9919 16.8093 14.4922 18.6672 14.4922C20.525 14.4922 22.0247 15.9919 22.0247 17.8498C22.0247 19.7076 20.525 21.2073 18.6672 21.2073Z" fill="#F9FAFE"/>
</svg>
