<svg width="23" height="23" viewBox="0 0 23 23" fill="none" xmlns="http://www.w3.org/2000/svg">
    <path d="M11.5 23C17.8513 23 23 17.8513 23 11.5C23 5.14873 17.8513 0 11.5 0C5.14873 0 0 5.14873 0 11.5C0 17.8513 5.14873 23 11.5 23Z" fill="#F9FAFE"/>
    <path d="M14.0204 12.3831L14.2854 10.6531H12.6264V9.53012C12.6147 9.40093 12.6323 9.27077 12.6778 9.14929C12.7233 9.02781 12.7955 8.91811 12.8892 8.82833C12.9828 8.73854 13.0954 8.67097 13.2187 8.6306C13.342 8.59023 13.4728 8.57811 13.6014 8.59512H14.3564V7.12312C13.9131 7.05148 13.4653 7.01238 13.0164 7.00612C12.7076 6.98256 12.3974 7.02718 12.1079 7.13681C11.8183 7.24645 11.5563 7.41842 11.3406 7.64055C11.1249 7.86268 10.9606 8.12953 10.8595 8.4222C10.7583 8.71487 10.7228 9.02619 10.7554 9.33412V10.6531H9.23535V12.3831H10.7554V16.5651H12.6264V12.3831H14.0204Z" fill="#3B5999"/>
</svg>
