<svg width="23" height="23" viewBox="0 0 23 23" fill="none" xmlns="http://www.w3.org/2000/svg">
    <path d="M11.5 23C17.8513 23 23 17.8513 23 11.5C23 5.14873 17.8513 0 11.5 0C5.14873 0 0 5.14873 0 11.5C0 17.8513 5.14873 23 11.5 23Z" fill="#F9FAFE"/>
    <path d="M7.00286 11.6608C6.91171 9.26088 9.0138 7.04309 11.4161 7.01432C12.6405 6.90989 13.8317 7.38536 14.7583 8.16084C14.3782 8.57876 13.9914 8.99185 13.5783 9.37859C12.7626 8.88299 11.7805 8.50531 10.8271 8.84074C9.28946 9.27858 8.35824 11.0941 8.92727 12.5984C9.39852 14.1695 11.3095 15.0317 12.8071 14.3717C13.5826 14.094 14.0939 13.3785 14.3182 12.6097C13.4294 12.592 12.5405 12.603 11.6517 12.5785C11.6495 12.0497 11.6473 11.5229 11.6495 10.9941C13.1317 10.9919 14.616 10.9875 16.1004 11.0008C16.1915 12.2964 16.0004 13.683 15.1581 14.7228C14.0047 16.2072 11.8739 16.6428 10.1404 16.0605C8.30069 15.4563 6.96282 13.6029 7.00286 11.6608Z" fill="#F493B8"/>
</svg>
